<?xml version="1.0" encoding="utf-8"?>
<!-- Generator: Adobe Illustrator 24.0.1, SVG Export Plug-In . SVG Version: 6.00 Build 0)  -->
<svg version="1.1" id="Layer_1" xmlns="http://www.w3.org/2000/svg" xmlns:xlink="http://www.w3.org/1999/xlink" x="0px" y="0px"
	 viewBox="0 0 1920 1080" style="enable-background:new 0 0 1920 1080;" xml:space="preserve">
<style type="text/css">
	.st0{fill:none;stroke:#FFDAB1;stroke-miterlimit:10;}
	.st1{fill:#D92039;}
	.st2{fill:#FFFFFF;}
</style>
<g>
	<rect x="0.5" y="0.5" width="1919" height="1079"/>
	<path d="M1919,1v1078H1V1H1919 M1920,0H0v1080h1920V0L1920,0z"/>
</g>
<g>
	<g>
		<path class="st0" d="M1237.31,318.54"/>
	</g>
</g>
<g>
	<g>
		<g>
			<g>
				<path class="st1" d="M1355.42,665.34c0.2,0.23,0.33,0.58,0.55,0.9c0.15,0.41,0.4,0.79,0.56,1.34c0.39,1.03,0.69,2.43,0.77,3.95
					c0.1,1.52,0,3.17-0.33,4.66c-0.04,0.19-0.08,0.37-0.11,0.56l-0.19,0.66c-0.1,0.45-0.29,0.89-0.43,1.35
					c-0.16,0.46-0.36,0.92-0.54,1.38c-0.24,0.46-0.4,0.94-0.67,1.42c-1.9,3.82-5.14,7.98-9.42,11.93c-1.07,0.98-2.18,1.98-3.41,2.91
					l-1.8,1.42l-0.91,0.72l-0.96,0.66c-0.64,0.44-1.28,0.88-1.93,1.32c-0.64,0.45-1.28,0.9-1.97,1.28c-1.37,0.78-2.7,1.66-4.13,2.39
					c-11.14,5.98-22.99,9.1-34.76,9.96c-5.9,0.42-11.8,0.26-17.67-0.5c-1.46-0.24-2.93-0.43-4.4-0.69
					c-1.45-0.31-2.91-0.62-4.38-0.93c-3.05-0.76-6.31-1.67-9.84-2.71c-1.47-0.43-2.94-0.87-4.4-1.3c-1.54-0.44-2.99-0.89-4.6-1.33
					c-1.58-0.44-3.16-0.89-4.7-1.27l-2.18-0.56l-0.34-0.09c-0.89-0.25-1.74-0.41-2.52-0.39c-0.4,0-0.77,0.07-1.11,0.16l-0.24,0.09
					c-0.06,0.01-0.23,0.13-0.1-0.03l0.38-0.59c0.47-0.72,0.94-1.44,1.41-2.15l0.63-0.95l0.3-0.45l0.07-0.11l0.04-0.05
					c0.02-0.04-0.01,0.04,0.11-0.19l1.05-1.93c2.78-5.16,5.57-10.32,8.36-15.49c11.15-20.73,22.26-41.88,33.49-64.52
					c1.43-2.8,5.96-11.69,12.8-25.09c6.85-13.4,15.85-31.44,26.13-52.59c10.21-21.19,21.58-45.57,32.98-71.72
					c11.4-26.16,22.8-54.1,33.15-82.33c1.32-3.58,2.65-7.32,3.93-11.21c1.27-3.92,2.46-7.99,3.51-12.26l0.74-3.25
					c0.24-1.09,0.44-2.23,0.66-3.34c0.1-0.56,0.22-1.11,0.31-1.69l0.28-1.86c0.3-1.88,0.5-3.68,0.6-5.48
					c0.77-7.23,0.28-14.36-0.91-20.96c-0.52-3.37-1.52-6.42-2.41-9.54c-0.94-3.15-1.88-6.29-2.82-9.42l-0.72-2.39
					c-0.02-0.11-0.17-0.06-0.25-0.1l-0.29-0.05l-0.57-0.1l-1.15-0.21c-1.53-0.27-3.06-0.55-4.59-0.82c-3.06-0.55-6.1-1.09-9.14-1.64
					l-1.14-0.2c-0.2-0.03-0.37-0.08-0.58-0.09h-0.66h-2.64c-1.76,0-3.52,0-5.28,0c-3.51,0-7.01,0-10.5,0c-3.72,0-7.4,0-11.06,0
					c-27.49,0-53.05,0.08-74.96,0.27c-43.82,0.37-73.01,1.18-73.63,2.67c-0.14,0.31,4.25,0.56,10.98,0.78
					c6.73,0.21,15.8,0.38,24.99,0.51c18.39,0.27,37.31,0.4,39.12,0.5c8.87,0.47,21.17,0.92,36.01,1.36
					c7.42,0.19,15.48,0.4,24.05,0.63c4.29,0.1,8.71,0.2,13.24,0.3c2.27,0.05,4.56,0.1,6.89,0.15c1.27,0.02,2.54,0.05,3.83,0.07
					c1.97,0.02,3.94,0.05,5.93,0.07c1.98,0.02,3.97,0.04,5.97,0.07c1,0.01,2,0.02,3,0.03c0.5,0.01,1.01,0,1.49,0.03l1.34,0.2
					c3.55,0.54,7.14,1.08,10.76,1.62c0.9,0.13,1.81,0.27,2.71,0.41c0.05,0.02,0.13,0,0.15,0.04l0.05,0.18l0.1,0.35l0.2,0.71
					l0.41,1.41c0.56,1.9,1.07,3.76,1.56,5.62c0.52,1.86,0.96,3.73,1.41,5.61l0.34,1.41l0.23,1.47c0.15,0.98,0.3,1.96,0.45,2.95
					c0.19,0.97,0.19,2.01,0.28,3.02c0.07,1.02,0.15,2.03,0.22,3.05c-0.01,2.08,0.01,4.16-0.09,6.26c-0.2,2.11-0.31,4.22-0.58,6.33
					l-0.45,2.9c-0.11,0.77-0.27,1.5-0.42,2.25c-1.17,5.97-2.81,11.64-4.63,17.09c-1.82,5.46-3.81,10.66-5.79,15.73
					c-1.98,5.11-3.97,10.25-5.96,15.41c-2,5.15-4.14,10.27-6.2,15.42c-2.07,5.15-4.15,10.3-6.33,15.39
					c-2.15,5.1-4.29,10.2-6.43,15.27c-2.2,5.04-4.39,10.06-6.56,15.04c-1.09,2.49-2.17,4.97-3.25,7.45
					c-1.11,2.46-2.21,4.9-3.31,7.34c-2.19,4.87-4.37,9.69-6.51,14.45c-8.75,18.96-17.17,36.88-24.98,52.9
					c-1.94,4.01-3.83,7.91-5.66,11.68c-1.85,3.76-3.65,7.4-5.37,10.9c-3.45,7.01-6.62,13.47-9.53,19.26
					c-2.88,5.81-5.44,10.97-7.63,15.4c-2.2,4.42-4.01,8.1-5.38,10.95c-10.82,22.46-21.48,44.02-32.08,65.16
					c-2.65,5.28-5.29,10.54-7.92,15.79l-0.92,1.83l-0.36,0.77l-0.71,1.52l-1.38,2.96c-0.86,1.86-1.72,3.71-2.58,5.57l-0.61,1.32
					l-0.04,0.08c-0.01,0.03-0.04,0.07,0.01,0.04l0.2-0.09l0.39-0.17c0.26-0.11,0.52-0.23,0.79-0.33c1.07-0.36,2.14-0.65,3.22-0.76
					c1.85-0.24,3.65-0.15,5.36,0.07c0.43,0.04,0.85,0.12,1.27,0.19l0.31,0.05c0.08,0.01,0.05,0,0.21,0.04l0.48,0.11l1.94,0.44
					c2.57,0.59,5.26,1.29,7.74,1.95c5.03,1.33,9.77,2.66,14.21,3.64c1.13,0.28,2.19,0.46,3.25,0.64l3.19,0.57l3.24,0.39l1.62,0.2
					l1.64,0.1l3.27,0.21l3.29,0.03c2.19,0.08,4.4-0.14,6.61-0.21c4.4-0.4,8.83-0.91,13.19-1.93c8.76-1.84,17.27-5.13,25.22-9.47
					c1.4-0.79,2.74-1.65,4.1-2.46c1.34-0.84,2.59-1.8,3.87-2.68c2.47-1.88,4.9-3.81,7.02-5.84c4.24-4.05,7.49-8.32,9.4-12.3
					c0.27-0.49,0.43-0.99,0.67-1.48c0.18-0.49,0.38-0.97,0.55-1.45c0.14-0.48,0.33-0.95,0.43-1.42l0.19-0.7l0.11-0.6
					c0.33-1.59,0.42-3.33,0.29-4.94c-0.12-1.61-0.44-3.11-0.89-4.24c-0.43-1.15-0.89-1.96-1.34-2.53c-0.08-0.11-0.26-0.06-0.42,0.09
					C1355.43,665.03,1355.32,665.27,1355.42,665.34z"/>
				<path class="st1" d="M1361.49,659.32c0.66,0.69,1.18,1.53,1.71,2.37c0.47,0.9,0.97,1.8,1.31,2.85c0.77,2.02,1.22,4.34,1.33,6.73
					c0.13,2.39-0.07,4.87-0.64,7.21c-0.56,2.37-1.5,4.94-2.79,7.37c-5.09,9.86-15.68,19.27-27.97,25.93
					c-12.24,6.55-25.15,9.95-38.04,10.9c-6.45,0.47-12.93,0.3-19.39-0.53c-1.61-0.26-3.23-0.47-4.84-0.75
					c-1.6-0.34-3.21-0.68-4.83-1.02c-3.29-0.81-6.69-1.77-10.26-2.82c-2.98-0.87-5.95-1.73-8.89-2.59
					c-1.52-0.43-3.05-0.86-4.55-1.23l-2.18-0.56l-1.17-0.27c-3.11-0.73-6.23-1.17-9.23-0.95c-1.53,0.07-3.01,0.42-4.43,0.84
					l-1.03,0.41l-0.51,0.21l-0.13,0.05l-0.06,0.03l0.03-0.06l0.15-0.26l1.17-2.08c1.52-2.71,3.03-5.4,4.54-8.08l2.19-3.91l1.08-1.92
					l1.62-2.96c2.78-5.15,5.56-10.31,8.36-15.48c11.14-20.71,22.23-41.83,33.44-64.42c1.43-2.8,5.95-11.66,12.77-25.03
					c6.83-13.37,15.81-31.35,26.06-52.43c10.18-21.11,21.5-45.39,32.85-71.43c11.34-26.03,22.69-53.83,32.97-81.88
					c2.61-7.07,5.21-14.54,7.16-22.54c0.47-2.02,0.93-4.04,1.3-6.13c0.09-0.52,0.2-1.03,0.28-1.56l0.25-1.67
					c0.23-1.51,0.42-2.96,0.51-4.42c0.65-5.85,0.38-11.64-0.45-17.1c-0.35-2.77-1.08-5.34-1.73-7.95c-0.72-2.59-1.42-5.17-2.24-7.82
					l-0.59-1.97c-0.58-0.17-1.27-0.19-1.9-0.3c-1.29-0.17-2.57-0.34-3.86-0.51c-2.57-0.34-5.13-0.68-7.68-1.01
					c-1.21-0.24-2.7-0.17-4.12-0.18c-1.43,0-2.85,0-4.27,0c-2.84,0-5.68,0-8.5,0c-3.63,0-7.23,0-10.8,0
					c-27.49,0-53.05,0.08-74.96,0.27c-43.82,0.37-73.01,1.18-73.63,2.67c-0.14,0.31,4.25,0.56,10.98,0.78s15.8,0.38,24.99,0.51
					c18.39,0.27,37.31,0.4,39.12,0.5c8.87,0.47,21.17,0.92,36.01,1.36c7.42,0.19,15.48,0.4,24.05,0.63c4.29,0.1,8.71,0.2,13.24,0.3
					c4.92,0.09,9.96,0.19,15.12,0.29c1.53,0.02,3.06,0.05,4.61,0.07c0.77,0.01,1.54,0.02,2.31,0.03l1.15,0.02l1.09,0.1
					c2.89,0.25,5.81,0.51,8.75,0.77l2.2,0.19c0.04,0.01,0.1-0.01,0.13,0.03l0.04,0.14l0.08,0.28l0.16,0.56l0.32,1.12
					c0.21,0.75,0.44,1.5,0.63,2.25l0.53,2.25c0.72,3,1.24,6.04,1.51,9.19c0.15,1.57,0.14,3.18,0.21,4.77
					c-0.05,1.61-0.08,3.23-0.19,4.85c-0.18,1.62-0.28,3.25-0.52,4.87c-0.28,1.75-0.45,2.99-0.75,4.38
					c-1.08,5.47-2.62,10.8-4.36,16.02s-3.69,10.33-5.67,15.39c-1.97,5.08-3.94,10.19-5.93,15.32c-1.99,5.12-4.11,10.21-6.17,15.33
					s-4.12,10.24-6.29,15.3c-2.14,5.08-4.27,10.14-6.4,15.19c-2.19,5.02-4.37,10.01-6.53,14.97c-1.08,2.48-2.16,4.95-3.23,7.41
					c-1.1,2.45-2.2,4.88-3.29,7.31c-2.19,4.85-4.35,9.65-6.49,14.39c-8.71,18.88-17.1,36.73-24.89,52.69
					c-1.94,3.99-3.82,7.88-5.64,11.64c-1.85,3.75-3.64,7.38-5.36,10.87c-3.44,6.98-6.6,13.43-9.51,19.21
					c-2.87,5.79-5.42,10.95-7.61,15.36c-2.2,4.41-4,8.08-5.37,10.92c-10.8,22.42-21.44,43.94-32.03,65.06
					c-4.71,9.43-9.39,18.78-14.05,28.11c-1.9,3.82-3.8,7.64-5.69,11.46l-1.39,2.8l-0.09,0.17c-0.02,0.05-0.09,0.15,0.01,0.08
					l0.39-0.16l0.78-0.33c0.52-0.21,1.03-0.46,1.56-0.64c2.13-0.69,4.29-1.25,6.48-1.43c3.75-0.41,7.48-0.13,11.07,0.42
					c0.9,0.12,1.79,0.3,2.68,0.47l0.66,0.13l0.35,0.07l0.47,0.11l1.89,0.43c2.51,0.57,5.06,1.24,7.52,1.89
					c4.95,1.31,9.78,2.66,14.51,3.72c1.19,0.29,2.36,0.5,3.53,0.71l3.51,0.63l3.55,0.43l1.78,0.22l1.79,0.12l3.58,0.24l3.6,0.04
					c2.4,0.09,4.81-0.14,7.22-0.22c4.81-0.42,9.64-0.98,14.4-2.08c9.55-1.99,18.85-5.55,27.57-10.3
					c12.2-6.86,22.7-16.39,27.81-26.57c1.29-2.51,2.23-5.15,2.79-7.62c0.56-2.44,0.76-5,0.6-7.48c-0.14-2.48-0.61-4.9-1.43-7.01
					c-0.8-2.13-1.87-4-3.23-5.5c-0.24-0.27-0.56-0.35-0.73-0.21C1361.2,658.73,1361.21,659.07,1361.49,659.32z"/>
				<path class="st1" d="M1367.56,653.3c1.12,1.16,2.02,2.49,2.88,3.84c0.78,1.4,1.53,2.82,2.06,4.35c1.14,3.01,1.74,6.25,1.88,9.52
					c0.36,6.56-1.36,13.09-4.58,19.12c-3.2,6.04-7.79,11.52-13.15,16.4c-5.42,4.83-11.5,9.23-18.28,12.83
					c-13.33,7.11-27.31,10.79-41.31,11.83c-7.01,0.51-14.05,0.33-21.1-0.57c-1.75-0.28-3.52-0.51-5.28-0.82
					c-1.75-0.37-3.51-0.74-5.28-1.12c-3.52-0.87-7.07-1.87-10.68-2.93c-2.95-0.86-5.88-1.71-8.79-2.56
					c-1.47-0.41-2.93-0.83-4.4-1.19l-2.18-0.56l-2.01-0.46c-2.67-0.61-5.35-1.05-8.01-1.37c-2.67-0.22-5.33-0.39-7.94-0.13
					c-2.67,0.14-5.25,0.77-7.74,1.53l-1.81,0.73l-0.9,0.37l-0.22,0.09l-0.11,0.05l0.06-0.11l0.25-0.45l1.95-3.57
					c2.57-4.69,5.12-9.36,7.67-14.02c2.53-4.64,5.06-9.27,7.58-13.9c2.78-5.15,5.56-10.3,8.35-15.47
					c11.13-20.69,22.2-41.78,33.39-64.32c1.42-2.79,5.94-11.63,12.74-24.98c6.82-13.34,15.77-31.27,25.98-52.27
					c10.14-21.04,21.42-45.22,32.71-71.13c11.29-25.91,22.57-53.55,32.79-81.43c2.58-6.99,5.06-14.15,6.88-21.62
					c0.44-1.87,0.86-3.75,1.2-5.66c0.2-0.96,0.33-1.88,0.48-2.9c0.17-1.13,0.34-2.24,0.42-3.36c0.52-4.46,0.47-8.93,0.01-13.24
					c-0.46-4.33-1.44-8.44-2.7-12.58l-0.46-1.55c-0.47-0.1-1.03-0.09-1.54-0.13l-3.12-0.2c-2.08-0.13-4.16-0.26-6.22-0.39
					c-1.01-0.09-2.12-0.07-3.21-0.07s-2.18,0-3.26,0c-2.17,0-4.34,0-6.5,0c-3.55,0-7.06,0-10.55,0c-27.49,0-53.05,0.08-74.96,0.27
					c-43.82,0.37-73.01,1.18-73.63,2.67c-0.14,0.31,4.25,0.56,10.98,0.78s15.8,0.38,24.99,0.51c18.39,0.27,37.31,0.4,39.12,0.5
					c8.87,0.47,21.17,0.92,36.01,1.36c7.42,0.19,15.48,0.4,24.05,0.63c8.47,0.19,17.45,0.38,26.83,0.59
					c4.25,0.09,8.6,0.19,13.02,0.28l1.64,0.03c0.03,0.01,0.08-0.01,0.09,0.01l0.03,0.1l0.06,0.2l0.11,0.41l0.22,0.82
					c0.14,0.55,0.31,1.09,0.44,1.64l0.32,1.67c0.44,2.23,0.64,4.5,0.73,6.78c0.05,1.14,0,2.28,0,3.42
					c-0.07,1.14-0.13,2.28-0.24,3.42c-0.25,2.31-0.55,4.41-1.07,7.01c-0.99,4.98-2.43,9.96-4.1,14.95
					c-1.67,4.99-3.58,9.99-5.55,15.04c-1.95,5.05-3.92,10.13-5.89,15.22c-1.98,5.09-4.09,10.15-6.13,15.24
					c-2.05,5.09-4.1,10.18-6.26,15.22c-2.13,5.05-4.25,10.09-6.36,15.11c-2.18,4.99-4.35,9.96-6.5,14.9
					c-1.08,2.47-2.15,4.93-3.22,7.37c-1.1,2.44-2.19,4.86-3.28,7.27c-2.18,4.83-4.33,9.6-6.46,14.32
					c-8.68,18.8-17.04,36.58-24.8,52.49c-1.93,3.98-3.81,7.85-5.63,11.6c-1.84,3.74-3.63,7.35-5.34,10.83
					c-3.43,6.96-6.58,13.39-9.48,19.16c-2.86,5.78-5.41,10.92-7.59,15.32c-2.19,4.4-3.99,8.06-5.36,10.9
					c-10.77,22.37-21.4,43.86-31.97,64.96c-2.65,5.27-5.28,10.53-7.91,15.77c-2.97,5.87-5.94,11.73-8.9,17.58
					c-2.94,5.79-5.87,11.57-8.8,17.35l-2.16,4.27l-0.13,0.27c-0.04,0.08-0.13,0.22-0.01,0.14l0.44-0.15l0.88-0.31
					c0.59-0.19,1.18-0.46,1.77-0.58l1.76-0.27l0.89-0.14c0.29,0,0.57,0.05,0.85,0.06l1.71,0.14c0.3-0.02,0.54,0.14,0.81,0.23
					l0.79,0.31c1-0.24,2.01-0.5,2.99-0.72l2.87-0.54c0.94-0.16,1.94-0.39,2.81-0.49l2.61-0.31l1.3-0.15
					c0.44-0.06,0.86-0.1,1.25-0.11l2.38-0.11l1.19-0.05c0.19,0,0.4-0.02,0.59-0.02l0.53,0.06l2.12,0.23
					c1.43,0.11,2.77,0.41,4.14,0.67c1.42,0.25,2.58,0.54,3.81,0.82c2.44,0.56,4.86,1.18,7.3,1.83c4.87,1.29,9.78,2.67,14.81,3.8
					c1.25,0.31,2.52,0.54,3.8,0.77l3.83,0.69l3.86,0.48l1.93,0.24l1.95,0.13l3.9,0.26c1.3,0.04,2.61,0.03,3.91,0.05
					c2.61,0.09,5.22-0.14,7.84-0.22c5.22-0.44,10.45-1.04,15.61-2.22c10.35-2.15,20.43-5.97,29.92-11.13
					c6.72-3.7,12.75-8.18,18.13-13.1c5.32-4.98,9.91-10.56,13.1-16.75c3.21-6.17,4.95-12.9,4.54-19.63
					c-0.17-3.35-0.79-6.68-1.98-9.79c-1.17-3.11-2.85-6.04-5.13-8.47c-0.4-0.44-0.85-0.63-1.05-0.51
					C1366.98,652.43,1367.11,652.87,1367.56,653.3z"/>
				<path class="st1" d="M1373.64,647.29c1.58,1.62,2.86,3.45,4.04,5.3c1.09,1.9,2.1,3.83,2.81,5.85c1.52,4.01,2.27,8.16,2.44,12.3
					c0.18,4.14-0.22,8.27-1.25,12.3c-1.03,4.02-2.53,7.8-4.47,11.37c-3.85,7.15-9.12,13.29-15.02,18.64
					c-5.95,5.27-12.52,10-19.87,13.9c-14.43,7.67-29.48,11.64-44.58,12.77c-7.56,0.55-15.17,0.37-22.81-0.61
					c-1.9-0.29-3.82-0.55-5.73-0.89c-1.9-0.4-3.81-0.8-5.73-1.21c-3.76-0.92-7.45-1.96-11.1-3.04c-2.91-0.85-5.81-1.69-8.69-2.54
					c-1.42-0.4-2.82-0.8-4.25-1.15c-0.74-0.18-1.37-0.36-2.19-0.55l-2.87-0.59l-1.43-0.29c-0.46-0.12-1.01-0.09-1.51-0.14
					l-3.06-0.18l-0.76-0.05c-0.27,0-0.63,0.1-0.93,0.15l-1.92,0.37c-1.3,0.25-2.52,0.46-3.86,0.75c-1.48,0.36-2.96,0.71-4.44,1.07
					l-2.21,0.53c-0.34,0.07-0.8,0.21-1.22,0.33l-1.27,0.36c-1.69,0.48-3.37,0.95-5.05,1.43c-0.82,0.22-1.71,0.5-2.6,0.79l-2.66,0.84
					l-0.15-1.11c-0.05-0.36-0.08-0.79-0.23-0.93l-0.74-1.21l-0.19-0.3c-0.06-0.09-0.11-0.23-0.21-0.23l-0.52-0.2l-1.05-0.39
					c-0.39,0.03-0.81,0.12-1.21,0.18l-0.61,0.1l-0.15,0.02l-0.08,0.01l0.08-0.15l0.34-0.64c0.91-1.69,1.83-3.38,2.74-5.06
					c3.62-6.68,7.21-13.32,10.81-19.95c6.21-11.49,12.4-22.94,18.62-34.46c11.12-20.67,22.18-41.73,33.33-64.22
					c1.42-2.78,5.92-11.61,12.71-24.92c6.8-13.31,15.72-31.18,25.9-52.11c10.1-20.96,21.34-45.05,32.58-70.83
					c11.24-25.78,22.46-53.27,32.62-80.97c2.55-6.9,4.91-13.77,6.61-20.69c0.4-1.73,0.8-3.46,1.1-5.19
					c0.18-0.86,0.31-1.75,0.43-2.58c0.1-0.76,0.25-1.52,0.31-2.3c0.38-3.08,0.45-6.19,0.26-9.28c-0.07-1.55-0.31-3.07-0.53-4.59
					c-0.32-1.51-0.62-3.02-1.1-4.47l-0.33-1.1c-0.34-0.05-0.75-0.02-1.12-0.03h-2.28c-1.52,0-3.04-0.01-4.55-0.01
					c-6.53,0-12.98-0.01-19.32-0.01c-27.49,0-53.05,0.08-74.96,0.27c-43.82,0.37-73.01,1.18-73.63,2.67
					c-0.14,0.31,4.25,0.56,10.98,0.78s15.8,0.38,24.99,0.51c18.39,0.27,37.31,0.4,39.12,0.5c8.87,0.47,21.17,0.92,36.01,1.36
					c7.42,0.19,15.48,0.4,24.05,0.63c4.29,0.1,8.71,0.2,13.24,0.3c2.27,0.05,4.56,0.1,6.89,0.15c1.09,0.02,2.19,0.05,3.29,0.07
					c0.62,0.02,1.25,0.05,1.88,0.07c2.44,0.1,4.94,0.19,7.48,0.29l0.93,0.04c0.05-0.01,0.06,0.02,0.07,0.07l0.03,0.12l0.06,0.24
					l0.12,0.48c0.18,0.63,0.3,1.28,0.41,1.93c0.23,1.29,0.32,2.6,0.36,3.91c0.02,0.65-0.02,1.31-0.03,1.96
					c-0.05,0.65-0.1,1.3-0.17,1.94c-0.09,0.64-0.15,1.29-0.28,1.92c-0.1,0.36-0.27,1.78-0.52,2.84c-0.9,4.48-2.24,9.12-3.83,13.88
					c-1.59,4.75-3.46,9.65-5.43,14.7c-1.94,5.02-3.9,10.07-5.86,15.13c-1.97,5.06-4.07,10.09-6.1,15.16
					c-2.04,5.06-4.08,10.12-6.23,15.13c-2.12,5.02-4.23,10.04-6.33,15.03c-2.17,4.97-4.32,9.91-6.47,14.82
					c-1.07,2.45-2.14,4.9-3.2,7.34c-1.09,2.42-2.18,4.84-3.27,7.24c-2.17,4.8-4.31,9.56-6.43,14.26
					c-8.64,18.72-16.97,36.43-24.7,52.29c-1.92,3.97-3.8,7.83-5.61,11.56c-1.84,3.73-3.62,7.33-5.33,10.8
					c-3.42,6.94-6.57,13.35-9.45,19.1c-2.86,5.76-5.4,10.89-7.57,15.28c-2.19,4.39-3.98,8.05-5.35,10.88
					c-10.75,22.32-21.36,43.78-31.92,64.86c-2.64,5.27-5.28,10.52-7.9,15.75c-3.9,7.63-7.79,15.24-11.68,22.83
					c-3.98,7.75-7.95,15.5-11.92,23.24l-2.94,5.74l-0.18,0.36c-0.06,0.11-0.15,0.28-0.09,0.24l0.18,0.05l0.36,0.1l0.37,0.1
					l0.18,0.05l0.09,0.02c0.02,0.02,0.04,0.08,0.05,0.12l0.41,1.01l0.21,0.5c0.01,0.29-0.03,0.71-0.04,1.06l-0.11,2.19
					c0.04,0.25-0.17,1.02-0.3,1.6l-0.41,1.84l6.57-2.44l6.12-2.17l3.05-1.08c1-0.35,2.1-0.76,2.88-1l5.1-1.68l2.54-0.84l1.27-0.42
					l1.06-0.32l4.19-1.24l2.09-0.62c0.34-0.09,0.72-0.24,1.02-0.28h0.77l3.07-0.02l1.53-0.01c0.25,0.01,0.52-0.02,0.75,0.02
					l0.69,0.12l2.77,0.49l1.38,0.24l0.65,0.12l0.44,0.1l1.78,0.4c2.38,0.54,4.66,1.13,7.08,1.77c4.8,1.26,9.79,2.67,15.11,3.88
					c1.31,0.32,2.69,0.58,4.07,0.83l4.14,0.75l4.18,0.53l2.09,0.26l2.1,0.15l4.21,0.28c1.41,0.04,2.81,0.04,4.22,0.07
					c2.82,0.1,5.63-0.13,8.45-0.23c5.62-0.46,11.26-1.11,16.82-2.37c11.15-2.3,22.01-6.4,32.27-11.95
					c7.28-3.99,13.79-8.8,19.69-14.16c5.86-5.44,11.12-11.68,14.96-18.97c1.93-3.63,3.44-7.49,4.46-11.59
					c1.03-4.12,1.43-8.34,1.23-12.56c-0.2-4.22-0.96-8.46-2.52-12.56c-1.54-4.09-3.83-8.08-7.03-11.45
					c-0.56-0.6-1.15-0.92-1.36-0.82C1372.75,646.12,1373,646.68,1373.64,647.29z"/>
				<path class="st1" d="M1379.71,641.27c2.03,2.08,3.71,4.41,5.21,6.77c1.41,2.39,2.66,4.85,3.56,7.35c1.9,5,2.8,10.08,3,15.08
					c0.2,5.01-0.3,9.98-1.56,14.85l-0.49,1.83l-0.56,1.73c-0.36,1.16-0.81,2.27-1.23,3.39c-0.44,1.11-0.94,2.19-1.43,3.28
					c-0.53,1.05-1.03,2.14-1.6,3.15c-4.5,8.26-10.45,15.06-16.89,20.87c-6.47,5.72-13.55,10.77-21.45,14.96
					c-15.52,8.24-31.64,12.48-47.86,13.71c-8.12,0.6-16.3,0.4-24.52-0.65c-2.05-0.31-4.11-0.59-6.17-0.95
					c-2.05-0.43-4.11-0.86-6.18-1.3c-3.99-0.98-7.84-2.06-11.53-3.15c-2.88-0.84-5.74-1.68-8.59-2.51c-1.36-0.38-2.71-0.77-4.1-1.11
					l-1.04-0.27l-0.52-0.13c-0.2-0.05-0.26-0.08-0.64-0.15c-1.25-0.24-2.49-0.47-3.73-0.71l-1.86-0.35
					c-0.16-0.02-0.3-0.07-0.47-0.08l-0.53,0.01l-1.05,0.03c-1.4,0.04-2.8,0.07-4.19,0.11l-1.05,0.03c-0.14-0.03-0.45,0.12-0.69,0.19
					l-0.75,0.26l-2.99,1.04c-2.02,0.7-4.03,1.4-6.04,2.1c-2.46,0.9-4.92,1.79-7.37,2.69l-3.67,1.34l-4.32,1.62
					c-2.96,1.12-5.91,2.23-8.86,3.35c-3.14,1.21-6.27,2.41-9.4,3.62l1.08-2.67l0.54-1.33l0.13-0.33l0.08-0.22l0.14-0.41l1.12-3.29
					l0.28-0.82c0.09-0.26,0.21-0.6,0.21-0.69l0.17-0.85l0.33-1.7c-0.02-0.29-0.1-0.45-0.15-0.68l-0.08-0.32l-0.02-0.08l-0.01-0.04
					l0.11-0.2l0.44-0.82c1.18-2.19,2.35-4.37,3.53-6.56c4.67-8.66,9.31-17.28,13.94-25.88c7.11-13.19,14.19-26.33,21.32-39.56
					c11.11-20.65,22.15-41.67,33.28-64.12c1.42-2.78,5.91-11.58,12.68-24.86c6.79-13.27,15.68-31.09,25.82-51.95
					c10.07-20.89,21.26-44.87,32.44-70.53c11.18-25.66,22.34-53,32.44-80.52c2.52-6.81,4.77-13.38,6.33-19.76
					c0.37-1.59,0.73-3.17,1.01-4.73c0.07-0.39,0.16-0.78,0.22-1.17l0.16-1.09c0.05-0.38,0.15-0.8,0.18-1.23
					c0.22-1.7,0.26-3.42,0.16-5.13s-0.38-3.41-0.89-5.03l-0.18-0.61c-0.19-0.03-0.41-0.01-0.62-0.02l-1.26-0.01
					c-0.84,0-1.68-0.01-2.52-0.01c-5.09-0.01-10.11-0.01-15.05-0.02c-27.49,0-53.05,0.08-74.96,0.27
					c-43.82,0.37-73.01,1.18-73.63,2.67c-0.14,0.31,4.25,0.56,10.98,0.78c6.73,0.21,15.8,0.38,24.99,0.51
					c18.39,0.27,37.31,0.4,39.12,0.5c8.87,0.47,21.17,0.92,36.01,1.36c13.85,0.35,30.08,0.77,47.83,1.23c0.63,0.1,1.28,0.2,1.94,0.3
					l0.22,0.04c0.03,0.07,0.03,0.18,0.05,0.26c0.03,0.18,0.04,0.36,0.05,0.54c0.02,0.36,0.01,0.71-0.02,1.04
					c-0.03,0.34-0.09,0.66-0.16,0.97c-0.04,0.15-0.07,0.31-0.12,0.45c-0.02,0.02-0.03,0.03-0.03,0.05l-0.09,0.53
					c-0.07,0.48-0.18,0.98-0.29,1.48c-0.81,3.99-2.05,8.29-3.57,12.81c-1.52,4.51-3.35,9.31-5.32,14.36
					c-1.93,4.99-3.87,10-5.82,15.04c-1.96,5.03-4.05,10.04-6.07,15.07c-2.03,5.03-4.05,10.06-6.19,15.05c-2.1,5-4.2,9.98-6.3,14.95
					c-2.16,4.94-4.3,9.86-6.44,14.75c-1.07,2.44-2.13,4.88-3.19,7.3c-1.09,2.41-2.17,4.82-3.25,7.21c-2.16,4.78-4.29,9.52-6.4,14.19
					c-8.61,18.64-16.9,36.28-24.61,52.09c-1.92,3.95-3.78,7.8-5.59,11.52c-1.83,3.72-3.6,7.31-5.31,10.77
					c-3.41,6.92-6.55,13.31-9.43,19.05c-2.85,5.75-5.38,10.86-7.55,15.24c-2.18,4.38-3.98,8.03-5.33,10.85
					c-10.73,22.28-21.32,43.7-31.87,64.76c-2.64,5.27-5.27,10.51-7.9,15.74c-4.83,9.38-9.64,18.74-14.45,28.09
					c-5.01,9.72-10.02,19.43-15.03,29.14l-3.72,7.21l-0.23,0.45c-0.07,0.14-0.18,0.34-0.16,0.34l-0.08,0.26l-0.16,0.52l-0.15,0.51
					l-0.08,0.26l-0.04,0.13l-0.11,0.27l-0.95,2.3l-0.47,1.15l-0.94,2.06l-1.93,4.23c-0.22,0.51-0.89,1.89-1.4,2.96l-1.61,3.37
					c6.5-2.65,13-5.31,19.5-7.97c5.55-2.24,11.09-4.49,16.64-6.73c4.4-1.75,8.8-3.51,13.2-5.26l2.99-1.18l0.75-0.3l0.37-0.15
					c0.13-0.05,0.25-0.1,0.32-0.09l1.01-0.07l4.03-0.26l2.01-0.13c0.32-0.01,0.69-0.08,0.98-0.03l0.87,0.15l3.49,0.59l1.74,0.29
					l0.8,0.14l0.43,0.1l1.72,0.39c2.32,0.52,4.46,1.08,6.86,1.71c4.72,1.24,9.79,2.68,15.41,3.96c0.71,0.16,1.38,0.33,2.12,0.47
					l2.23,0.42l4.46,0.82l4.49,0.58l2.25,0.28l2.26,0.17c1.51,0.1,3.01,0.21,4.52,0.31c1.51,0.05,3.02,0.06,4.53,0.08
					c3.02,0.1,6.04-0.13,9.07-0.24c6.03-0.48,12.07-1.18,18.03-2.52c11.94-2.46,23.6-6.82,34.62-12.78
					c7.83-4.29,14.83-9.41,21.26-15.22c6.39-5.91,12.32-12.81,16.81-21.19c1.12-2.08,2.13-4.27,3.03-6.52
					c0.43-1.14,0.88-2.26,1.23-3.44l0.55-1.75l0.49-1.86c1.26-4.97,1.76-10.01,1.54-15.1c-0.22-5.09-1.13-10.25-3.07-15.34
					c-1.9-5.07-4.81-10.11-8.92-14.42c-0.72-0.76-1.44-1.2-1.67-1.12C1378.53,639.82,1378.9,640.48,1379.71,641.27z"/>
			</g>
		</g>
	</g>
</g>
<g>
	<g>
		<g>
			<g>
				<path class="st2" d="M1514.59,671.61c-0.98-0.04-1.7-0.09-3.11,0.05c-1.26,0.12-2.52,0.34-3.75,0.65
					c-1.15,0.27-2.6,0.81-3.88,1.42c-0.65,0.31-1.29,0.65-1.91,1.01s-1.22,0.75-1.72,1.13c-1.04,0.77-2.03,1.64-2.94,2.57
					c-1,1.02-1.47,1.66-2.1,2.51c-0.29,0.41-0.57,0.82-0.84,1.24l-0.39,0.64c-0.12,0.2-0.27,0.46-0.34,0.59
					c-0.34,0.63-0.66,1.28-0.95,1.94c-0.66,1.47-0.89,2.28-1.2,3.31l-0.21,0.75l-0.05,0.21l-0.02,0.1l-0.09,0.41l-0.07,0.32
					c-0.01,0.02-0.01,0.04-0.01,0.06c-0.02,0.21,0.12,0.46,0.23,0.8c0.1,0.34,0.12,0.74,0.02,1.1c-0.18,0.72-0.86,1.35-1.8,1.45
					c-0.14,0.02-0.27,0.02-0.41,0.02c-0.21-0.01,0.02,0.03-1.04-0.07c-1.54-0.14-3.06-0.29-4.56-0.43c-3.01-0.3-5.96-0.62-8.9-0.95
					c-2.94-0.35-5.88-0.69-8.86-1.04c-1.5-0.18-3.02-0.36-4.55-0.54c-1.59-0.19-3.3-0.37-5.14-0.53
					c-5.31-0.43-11.51-0.69-18.41,0.55c-3.38,0.59-7.15,1.72-10.48,3.15c-3.33,1.49-6.51,3.24-9.35,5.34
					c-2.85,2.09-5.5,4.42-7.82,7.03c-1.2,1.27-2.25,2.67-3.33,4.06c-0.51,0.71-1,1.44-1.49,2.17c-0.5,0.72-0.96,1.47-1.39,2.25
					c-1.81,3.03-3.23,6.36-4.38,9.83c-1.12,3.49-1.81,7.2-2.12,11.02l-8.04,98.05l46.26-87.63c3.76-7.11,7-14.56,9.75-22.37
					c0.48-1.33,2.11-5.51,4.3-11.8c2.18-6.29,4.82-14.68,7.56-24.31c1.36-4.81,2.75-9.92,4.17-15.22
					c1.41-5.32,2.88-10.88,4.39-16.61c2.96-11.6,6.02-24.13,8.24-37.15c1.16-6.47,2.01-13.12,2.69-19.7
					c0.26-3.32,0.59-6.59,0.71-9.89c0.07-1.65,0.17-3.27,0.2-4.9c0.01-1.64,0.03-3.26,0.04-4.87c0.03-1.61-0.01-3.22-0.07-4.81
					c-0.06-1.6-0.11-3.17-0.17-4.74c-0.12-1.57-0.24-3.13-0.36-4.66c-0.13-1.54-0.22-3.05-0.43-4.55c-0.4-3.01-0.7-5.87-1.23-8.78
					c-0.52-2.89-1.08-5.7-1.79-8.45c-1.35-5.47-3.15-10.6-5.17-15.12c-2.02-4.53-4.31-8.45-6.52-11.55c-1.07-1.56-2.2-2.9-3.15-4.05
					c-1.02-1.13-1.92-2.07-2.7-2.8c-1.61-1.44-2.63-2.09-2.97-1.9c-0.14,0.07,0.18,0.64,0.83,1.59c0.33,0.47,0.74,1.04,1.2,1.7
					c0.45,0.66,0.96,1.41,1.51,2.22c2.19,3.27,4.79,7.75,6.8,12.34c4.09,9.21,5.88,18.44,5.99,19.3c0.27,2.19,0.53,4.76,0.77,7.64
					c0.27,2.9,0.34,6.01,0.55,9.46c0.2,6.87,0.16,14.84-0.49,23.38c-1.22,17.12-5.01,36.3-9.59,54.43
					c-2.27,9.08-4.69,17.93-6.94,26.28c-2.25,8.34-4.4,16.36-6.46,23.61c-2.06,7.25-4.03,13.74-5.74,19.05
					c-1.76,5.33-3.14,9.48-4,12.09c-2.47,7.67-5.33,15.12-8.39,21.85l-26.79,58.88l2.25-65.57c0.19-5.61,1.54-11,3.71-15.89
					c2.18-4.89,5.24-9.26,8.94-13.06s8.14-6.97,13.2-9.25c0.63-0.28,1.26-0.57,1.91-0.83l1.98-0.7c1.34-0.48,2.62-0.82,3.91-1.13
					c2.58-0.61,5.11-0.99,7.52-1.2c4.84-0.43,9.24-0.28,13.2-0.09c3.71,0.2,7.45,0.41,11.21,0.62c3.71,0.2,7.45,0.4,11.23,0.61
					c1.89,0.1,3.79,0.2,5.7,0.3l1.44,0.07l0.18,0.01c0.03,0,0.04,0,0.05-0.01l0.09-0.01l0.18-0.02c0.24-0.02,0.48-0.05,0.71-0.09
					c1.29-0.21,2.22-1.03,2.54-2c0.16-0.49,0.17-1.04,0.04-1.52c-0.14-0.49-0.34-0.87-0.35-1.19c0-0.03,0-0.06,0-0.09
					c0.01-0.07-0.02,0.06,0.06-0.32l0.08-0.41l0.06-0.25l0.2-0.72c0.14-0.48,0.29-0.96,0.45-1.43l0.12-0.36
					c0.04-0.11,0.08-0.23,0.15-0.41l0.4-0.95c0.28-0.63,0.58-1.26,0.9-1.87c0.13-0.26,0.41-0.74,0.65-1.13
					c0.25-0.4,0.52-0.8,0.79-1.2c0.28-0.39,0.56-0.78,0.86-1.15l0.45-0.55c0.17-0.2,0.4-0.45,0.61-0.67c0.85-0.9,1.79-1.74,2.77-2.5
					c1.91-1.5,4.74-2.9,7.12-3.56c1.16-0.32,2.37-0.55,3.57-0.69c0.58-0.07,1.25-0.12,1.76-0.14c0.44,0,0.89,0,1.34,0.02
					c1.91,0.08,3.42,0.17,3.68-0.02C1518.1,672.21,1516.8,671.69,1514.59,671.61z"/>
				<path class="st2" d="M1514.26,680.15c-1.01-0.12-2.8,0.03-4.3,0.41c-1.51,0.36-3.35,1.24-4.66,2.19
					c-0.65,0.48-1.27,1.02-1.84,1.6c-0.63,0.62-0.93,1.05-1.33,1.58c-0.36,0.5-0.74,1.08-1.01,1.57c-0.22,0.42-0.43,0.84-0.62,1.27
					c-0.44,0.95-0.6,1.53-0.82,2.23l-0.15,0.51l-0.04,0.16l-0.02,0.1l-0.09,0.39c-0.07,0.33-0.07,0.36-0.09,0.5
					c-0.02,0.12-0.03,0.23-0.04,0.35c-0.12,1.17,0.16,2.38,0.08,3.66c-0.12,1.27-0.78,2.44-1.7,3.29c-1.87,1.67-4.58,2.51-7.55,2.54
					c-0.44,0.01-0.87-0.02-1.31-0.04c-0.55-0.04-1.09-0.09-1.63-0.13c-1.54-0.14-3.06-0.29-4.56-0.43c-3.01-0.3-5.96-0.62-8.9-0.95
					c-2.94-0.35-5.88-0.69-8.86-1.04c-2.97-0.35-5.98-0.75-9.43-1.05c-4.95-0.41-10.39-0.61-16.14,0.41
					c-2.84,0.49-5.86,1.4-8.62,2.55c-2.73,1.22-5.37,2.64-7.72,4.38c-2.37,1.73-4.58,3.65-6.52,5.82c-1.01,1.05-1.88,2.22-2.79,3.37
					c-0.43,0.59-0.83,1.2-1.24,1.81c-0.42,0.6-0.81,1.22-1.16,1.87c-1.53,2.51-2.7,5.27-3.66,8.13c-0.94,2.88-1.5,5.93-1.77,9.05
					l-4.98,57.2l27.06-51.18c3.59-6.79,6.7-13.94,9.36-21.49c0.46-1.29,2.04-5.32,4.18-11.44c2.13-6.11,4.72-14.32,7.42-23.83
					c1.34-4.75,2.73-9.82,4.14-15.11c1.4-5.3,2.87-10.84,4.37-16.54c2.94-11.5,5.95-23.84,8.12-36.52
					c1.14-6.31,1.96-12.74,2.62-19.1c0.25-3.2,0.58-6.35,0.68-9.52c0.07-1.58,0.17-3.14,0.2-4.71c0.01-1.57,0.03-3.12,0.04-4.66
					c0.03-1.54-0.01-3.08-0.07-4.6c-0.05-1.52-0.1-3.03-0.16-4.52c-0.11-1.49-0.23-2.97-0.34-4.43c-0.12-1.46-0.21-2.9-0.41-4.32
					c-0.38-2.85-0.67-5.59-1.16-8.3c-0.49-2.71-1.02-5.34-1.67-7.87c-1.26-5.06-2.91-9.74-4.74-13.82s-3.89-7.55-5.86-10.27
					c-3.92-5.48-7.3-7.88-7.87-7.52c-0.14,0.08,0.12,0.59,0.67,1.42c0.28,0.41,0.63,0.91,1.02,1.49s0.82,1.23,1.3,1.95
					c1.88,2.86,4.14,6.8,5.92,10.89c3.61,8.2,5.28,16.73,5.37,17.54c0.23,2.03,0.45,4.42,0.67,7.12c0.23,2.7,0.29,5.68,0.48,8.94
					c0.17,6.52,0.1,14.09-0.53,22.27c-1.2,16.38-4.88,34.98-9.4,52.84c-2.24,8.94-4.64,17.73-6.89,26.07s-4.38,16.28-6.41,23.42
					c-2.03,7.14-3.96,13.47-5.62,18.64c-1.71,5.17-3.03,9.19-3.87,11.71c-2.37,7.41-5.1,14.55-8,20.97l-9,19.9l0.6-22.19
					c0.12-4.4,1.15-8.71,2.86-12.66c1.73-3.95,4.19-7.53,7.17-10.63c2.97-3.11,6.55-5.68,10.57-7.52c0.5-0.23,1-0.46,1.52-0.67
					l1.57-0.56c1.05-0.39,2.1-0.68,3.15-0.94c2.11-0.52,4.21-0.84,6.29-1.04c4.15-0.4,8.14-0.29,11.93-0.11
					c3.69,0.2,7.39,0.4,11.12,0.61c3.71,0.2,7.45,0.4,11.23,0.6c1.89,0.1,3.79,0.2,5.7,0.3l1.44,0.07l0.98,0.03
					c0.61,0,1.21,0.02,1.81-0.02c3.29-0.15,6.23-1.19,8.22-3.1c0.98-0.97,1.66-2.29,1.75-3.71c0-0.35-0.01-0.71-0.02-1.05l-0.1-1.02
					c-0.06-0.67-0.11-1.32-0.08-1.96c0.01-0.13,0.01-0.25,0.03-0.38c0.02-0.14,0.01-0.18,0.08-0.51c0.05-0.26,0.33-1.61,1.01-3.19
					c0.18-0.41,0.37-0.81,0.58-1.2c0.08-0.17,0.26-0.46,0.41-0.71c0.16-0.25,0.33-0.5,0.5-0.74s0.35-0.48,0.53-0.72l0.28-0.35
					c0.1-0.12,0.25-0.27,0.37-0.4c0.52-0.54,1.09-1.05,1.69-1.52c1.17-0.91,2.87-1.74,4.32-2.14c0.71-0.18,1.45-0.32,2.18-0.41
					c0.36-0.04,0.76-0.08,1.07-0.08c0.28,0,0.56,0.01,0.83,0.02c1.19,0.06,2.14,0.04,2.32-0.16
					C1516.49,680.59,1515.67,680.2,1514.26,680.15z"/>
				<path class="st2" d="M1513.93,688.69c-0.46-0.08-1.14,0-1.74,0.12c-0.6,0.13-1.29,0.46-1.81,0.82c-0.5,0.38-1.01,0.85-1.29,1.27
					c-0.16,0.22-0.32,0.45-0.45,0.67l-0.3,0.61c-0.38,0.81-0.56,1.58-0.65,2c-0.11,0.5-0.15,0.87-0.18,1.31
					c-0.09,1.06-0.06,2.13-0.02,3.22l0.06,1.64c-0.02,0.55-0.05,1.1-0.1,1.66c-0.34,2.21-1.67,4.15-3.42,5.49
					c-1.76,1.33-3.86,2.21-6.11,2.8c-2.25,0.58-4.68,0.87-7.19,0.83c-1.5-0.02-2.89-0.15-4.43-0.29c-1.54-0.14-3.06-0.29-4.56-0.43
					c-3.01-0.3-5.96-0.62-8.9-0.95c-2.94-0.35-5.88-0.69-8.86-1.04s-6-0.75-9.18-1.03c-4.6-0.39-9.26-0.53-13.87,0.27
					c-2.3,0.39-4.58,1.07-6.75,1.95c-2.14,0.95-4.22,2.03-6.1,3.41c-1.89,1.36-3.67,2.87-5.22,4.61c-0.82,0.83-1.51,1.77-2.25,2.68
					c-0.34,0.47-0.67,0.96-1,1.44c-0.34,0.48-0.65,0.97-0.94,1.49c-1.24,2-2.16,4.19-2.94,6.44c-0.75,2.27-1.19,4.65-1.42,7.07
					l-1.49,15.63l7.42-14.01c3.42-6.46,6.41-13.31,8.96-20.6c0.45-1.24,1.97-5.14,4.05-11.08c2.07-5.94,4.61-13.96,7.28-23.35
					c2.65-9.4,5.5-20.08,8.47-31.47c2.92-11.41,5.88-23.55,7.99-35.88c1.11-6.15,1.9-12.37,2.54-18.5c0.24-3.08,0.56-6.12,0.66-9.15
					c0.06-1.51,0.16-3.01,0.19-4.51c0.01-1.5,0.03-2.98,0.04-4.45c0.03-1.47-0.01-2.93-0.07-4.38c-0.05-1.45-0.1-2.88-0.15-4.3
					c-0.11-1.42-0.22-2.82-0.32-4.2c-0.12-1.38-0.19-2.75-0.39-4.1c-0.36-2.69-0.63-5.3-1.1-7.83c-0.46-2.53-0.95-4.97-1.56-7.3
					c-2.33-9.34-6.03-16.84-9.52-21.5c-3.44-4.72-6.36-6.66-6.92-6.28c-0.14,0.08,0.07,0.53,0.52,1.25
					c0.46,0.71,1.13,1.72,1.93,2.95c1.57,2.46,3.5,5.85,5.04,9.44c3.14,7.19,4.69,15.02,4.76,15.77c0.19,1.86,0.38,4.08,0.57,6.59
					c0.2,2.51,0.24,5.35,0.41,8.42c0.13,6.16,0.05,13.35-0.57,21.16c-1.17,15.64-4.74,33.67-9.2,51.26
					c-2.21,8.8-4.59,17.52-6.84,25.85c-2.25,8.33-4.36,16.21-6.36,23.24c-2,7.03-3.88,13.21-5.5,18.23c-1.65,5-2.93,8.89-3.74,11.34
					c-2.28,7.15-4.87,13.97-7.61,20.09l7.75,2.11c0.05-3.19,0.76-6.41,2.02-9.43c1.27-3.02,3.15-5.79,5.4-8.19
					c2.25-2.42,4.96-4.4,7.94-5.8c2.96-1.42,6.27-2.23,9.72-2.57c3.45-0.36,7.03-0.3,10.66-0.13c3.66,0.2,7.34,0.4,11.04,0.6
					c3.71,0.2,7.45,0.4,11.23,0.6c1.89,0.1,3.79,0.2,5.7,0.3c1.9,0.09,3.87,0.24,5.79,0.2c2.66-0.03,5.21-0.39,7.57-1.07
					c2.35-0.69,4.53-1.67,6.34-3.14c1.8-1.46,3.14-3.54,3.46-5.89c0.04-0.59,0.06-1.18,0.07-1.76l-0.09-1.74
					c-0.06-1.15-0.11-2.28-0.04-3.4c0.09-0.9,0.1-1.64,0.73-3.19l0.26-0.54c0.09-0.18,0.25-0.39,0.38-0.57
					c0.24-0.37,0.64-0.76,1.07-1.09c0.42-0.32,1-0.58,1.51-0.72c0.5-0.09,1.1-0.21,1.5-0.13c0.47,0.05,0.87-0.09,0.97-0.3
					C1514.88,688.98,1514.55,688.71,1513.93,688.69z"/>
				<path class="st2" d="M1513.69,695.09c-0.03-0.64,0.01-0.71-0.07-1c-0.07-0.2-0.03-0.08-0.03-0.11c0,0,0-0.01,0-0.02
					s-0.02-0.03,0.03,0.05c0.16,0.22,0.23,0.24,0.67,0.61c0.2,0.14,0.36,0.21,0.6,0.34c0.3,0.19,0.61,0.34,0.92,0.47l0.24,0.09
					c0.09,0.03,0.17,0.06,0.14,0.04c0-0.02-0.01,0-0.01,0.01c-0.01,0.03-0.02,0.05-0.03,0.08c-0.03-0.04-0.06,0.36-0.08,0.57
					l-0.08,0.87c-0.03,0.31-0.05,0.62-0.07,0.93c-0.12,1.55-0.17,3.09-0.28,4.57c-0.05,0.75-0.11,1.48-0.19,2.22
					c-0.12,0.73-0.26,1.46-0.42,2.18c-0.81,2.91-2.76,5.48-5.18,7.35c-4.92,3.65-11.42,5.34-18.47,5.36
					c-1.04,0.03-2.07-0.07-3.1-0.11c-0.95-0.08-1.89-0.16-2.82-0.24c-1.54-0.14-3.06-0.29-4.56-0.43c-3.01-0.3-5.96-0.62-8.9-0.95
					c-2.94-0.35-5.88-0.69-8.86-1.05c-2.99-0.35-6.01-0.75-8.92-1.01c-4.25-0.37-8.13-0.46-11.6,0.12c-0.87,0.13-1.72,0.32-2.5,0.56
					c-0.81,0.18-1.59,0.52-2.38,0.79c-1.54,0.68-3.08,1.43-4.48,2.45c-5.65,3.92-9.82,10.46-10.38,17.42l-10.21-2.78
					c3.26-6.14,6.11-12.68,8.57-19.71c0.43-1.2,1.9-4.95,3.92-10.72c2.02-5.77,4.5-13.6,7.14-22.87c2.62-9.26,5.48-19.99,8.43-31.29
					c2.9-11.31,5.81-23.26,7.86-35.25c1.09-5.99,1.85-11.99,2.47-17.89c0.23-2.95,0.54-5.88,0.63-8.78
					c0.06-1.45,0.16-2.88,0.19-4.31c0.01-1.43,0.03-2.84,0.04-4.24c0.03-1.4-0.01-2.79-0.06-4.17c-0.05-1.37-0.09-2.74-0.14-4.08
					c-0.1-1.34-0.21-2.67-0.31-3.98c-0.11-1.31-0.18-2.61-0.37-3.87c-0.34-2.53-0.6-5.01-1.03-7.36s-0.88-4.6-1.44-6.73
					c-2.15-8.54-5.44-15.02-8.43-18.92c-2.96-3.96-5.42-5.43-5.98-5.05c-0.13,0.09,0.01,0.47,0.36,1.08
					c0.37,0.59,0.9,1.44,1.53,2.46c1.27,2.05,2.85,4.89,4.16,7.99c2.66,6.18,4.1,13.32,4.14,14.01c0.16,1.7,0.31,3.74,0.46,6.07
					c0.17,2.32,0.19,5.02,0.34,7.9c0.09,5.81,0,12.6-0.61,20.05c-1.15,14.9-4.61,32.35-9.01,49.67c-2.18,8.67-4.55,17.31-6.79,25.64
					c-2.25,8.33-4.34,16.13-6.31,23.05c-1.97,6.92-3.81,12.95-5.38,17.83c-1.59,4.83-2.83,8.6-3.6,10.96
					c-2.18,6.88-4.64,13.4-7.22,19.2l23.89,6.51c-0.03-1.99,0.36-4.12,1.18-6.2c0.81-2.08,2.1-4.05,3.63-5.76
					c1.53-1.72,3.37-3.11,5.31-4.08l0.73-0.37l0.75-0.29c0.48-0.22,1.05-0.39,1.63-0.55c1.16-0.32,2.43-0.56,3.81-0.72
					c2.76-0.32,5.93-0.31,9.39-0.15c3.63,0.2,7.28,0.39,10.96,0.59c3.71,0.2,7.45,0.4,11.23,0.61c1.89,0.1,3.79,0.2,5.7,0.3
					c1.12,0.06,2.24,0.13,3.36,0.19c1.33,0.04,2.67,0.12,4,0.06c7.31-0.19,13.95-2.15,18.9-6.06c2.44-1.99,4.41-4.67,5.23-7.67
					c0.17-0.75,0.31-1.5,0.44-2.25c0.08-0.76,0.15-1.52,0.2-2.29c0.12-1.54,0.15-3.13,0.26-4.74c0.01-0.32,0.03-0.64,0.06-0.96
					l0.07-0.89l0.03-0.37l0.01-0.17l0.01-0.02c0-0.01,0.02-0.02,0-0.04c-0.2-0.07-0.48-0.2-0.62-0.23c-0.16-0.05-0.32-0.1-0.47-0.16
					c-0.31-0.12-0.62-0.27-0.92-0.45c-0.17-0.11-0.24-0.12-0.34-0.18c-0.1-0.05-0.19-0.1-0.28-0.17s-0.18-0.13-0.27-0.21l-0.13-0.12
					c-0.04-0.03-0.05-0.03-0.07-0.05c-0.08-0.06-0.16-0.13-0.23-0.23c-0.1-0.16-0.03-0.05-0.05-0.06h-0.01c0,0-0.02-0.03,0.02,0.06
					c0.05,0.13,0.07,0.26,0.07,0.37c0,0.07-0.01,0.1-0.01,0.19c0.02,0.13,0.02,0.26,0.02,0.38c0,0.54-0.14,0.92-0.15,0.97
					C1513.51,696.01,1513.66,695.69,1513.69,695.09z"/>
				<path class="st2" d="M1513.69,695.09c-0.03-0.64,0.01-0.71-0.07-1c-0.07-0.2-0.03-0.08-0.03-0.11c0,0,0-0.01,0-0.02
					s-0.02-0.03,0.03,0.05c0.16,0.22,0.23,0.24,0.67,0.61c0.2,0.14,0.36,0.21,0.6,0.34c0.3,0.19,0.61,0.34,0.92,0.47
					c0.53,0.17,1.53,0.6,2.42,0.81c0.23,0.06,0.45,0.11,0.68,0.15l0.09,0.02l0.04,0.01h0.01c10.75,2.65,2.98,0.73,5.38,1.33l0,0
					v0.01v0.05l0.01,0.09l0.03,0.37c0.04,0.17,0,0.68-0.02,1.07l-0.06,1.24c-0.16,2.04-0.32,4.03-0.68,5.88
					c-0.17,0.93-0.37,1.82-0.58,2.71c-0.26,0.87-0.56,1.74-0.87,2.61c-1.38,3.49-3.87,6.68-6.88,9.12
					c-3.05,2.42-6.61,4.23-10.56,5.47c-3.96,1.21-8.3,1.87-12.83,1.9c-1.34,0.05-2.67-0.08-3.99-0.11
					c-1.26-0.08-2.89-0.25-3.42-0.29c-1.54-0.14-3.06-0.29-4.56-0.43c-3.01-0.3-5.96-0.62-8.9-0.95c-2.94-0.35-5.88-0.69-8.86-1.04
					c-1.48-0.18-2.97-0.36-4.48-0.54c-1.46-0.17-2.85-0.33-4.19-0.45c-3.89-0.35-7-0.38-9.33-0.02c-0.59,0.07-1.14,0.2-1.59,0.32
					c-0.48,0.08-0.95,0.29-1.43,0.43c-0.94,0.41-1.94,0.83-2.85,1.48c-0.92,0.63-1.84,1.33-2.63,2.19c-0.44,0.39-0.77,0.87-1.17,1.3
					l-0.51,0.71c-0.19,0.23-0.35,0.47-0.48,0.72c-0.66,0.97-1.09,2.02-1.5,3.05c-0.38,1.05-0.56,2.1-0.71,3.13l-26.36-7.18
					c3.09-5.81,5.82-12.06,8.18-18.82c0.41-1.15,1.83-4.76,3.8-10.36c1.96-5.6,4.39-13.25,7-22.38c1.3-4.58,2.65-9.52,4.06-14.76
					c1.39-5.24,2.84-10.72,4.33-16.35c2.87-11.21,5.74-22.97,7.74-34.61c1.06-5.83,1.79-11.61,2.4-17.29
					c0.22-2.83,0.52-5.65,0.61-8.4c0.06-1.38,0.15-2.76,0.18-4.11c0.01-1.36,0.02-2.7,0.04-4.03c0.03-1.34-0.01-2.65-0.06-3.95
					c-0.04-1.3-0.09-2.59-0.13-3.86c-0.1-1.26-0.2-2.51-0.29-3.75c-0.11-1.23-0.17-2.46-0.35-3.64c-0.32-2.37-0.56-4.72-0.97-6.88
					c-0.4-2.17-0.82-4.24-1.33-6.16c-1.97-7.73-4.85-13.2-7.35-16.33c-2.48-3.19-4.48-4.2-5.03-3.81c-0.13,0.09-0.04,0.42,0.21,0.9
					c0.12,0.25,0.3,0.52,0.49,0.85c0.18,0.34,0.4,0.72,0.65,1.12c0.96,1.64,2.21,3.94,3.28,6.54c2.19,5.17,3.5,11.61,3.52,12.24
					c0.1,1.56,0.22,3.43,0.36,5.55c0.14,2.13,0.14,4.69,0.27,7.38c0.06,5.46-0.05,11.85-0.66,18.93
					c-1.13,14.16-4.47,31.03-8.82,48.09c-2.15,8.53-4.5,17.11-6.74,25.42c-2.25,8.33-4.33,16.06-6.26,22.87
					c-1.94,6.81-3.74,12.69-5.26,17.42c-1.53,4.67-2.72,8.3-3.47,10.58c-2.08,6.62-4.41,12.83-6.83,18.32l40.04,10.91
					c-0.1-0.78-0.03-1.82,0.33-2.97c0.36-1.14,1.05-2.32,1.86-3.33c0.81-1.03,1.78-1.82,2.69-2.36l0.34-0.22
					c0.12-0.04,0.23-0.1,0.34-0.16c0.19-0.13,0.53-0.25,0.87-0.36c0.69-0.22,1.54-0.42,2.58-0.56c2.07-0.29,4.82-0.32,8.13-0.18
					c3.6,0.19,7.23,0.39,10.88,0.58c3.71,0.2,7.45,0.4,11.23,0.61c1.89,0.1,3.79,0.2,5.7,0.3l1.44,0.07l2.4,0.16
					c1.7,0.05,3.4,0.15,5.09,0.06c4.65-0.12,9.08-0.9,13.09-2.23c4.01-1.37,7.61-3.29,10.67-5.85c3.02-2.56,5.52-5.86,6.92-9.44
					c0.31-0.89,0.61-1.78,0.88-2.68c0.22-0.91,0.42-1.83,0.59-2.78c0.36-1.89,0.51-3.94,0.66-6.04l0.04-1.26
					c0.01-0.4,0.06-0.93,0-1.1l-0.05-0.37l-0.01-0.09l-0.01-0.05v-0.02l0,0l0,0c-2.77-0.68,6.2,1.52-6.21-1.53h-0.02l-0.04-0.01
					c-0.23-0.04-0.45-0.09-0.67-0.15c-0.45-0.11-0.89-0.25-1.33-0.41c-0.2-0.07-0.48-0.2-0.62-0.23c-0.16-0.05-0.32-0.1-0.47-0.16
					c-0.31-0.12-0.62-0.27-0.92-0.45c-0.17-0.11-0.24-0.12-0.34-0.18c-0.1-0.05-0.19-0.1-0.28-0.17s-0.18-0.13-0.27-0.21l-0.13-0.12
					c-0.04-0.03-0.05-0.03-0.07-0.05c-0.08-0.06-0.16-0.13-0.23-0.23c-0.1-0.16-0.03-0.05-0.05-0.06h-0.01c0,0-0.02-0.03,0.02,0.06
					c0.05,0.13,0.07,0.26,0.07,0.37c0,0.07-0.01,0.1-0.01,0.19c0.02,0.13,0.02,0.26,0.02,0.38c0,0.54-0.14,0.92-0.15,0.97
					C1513.51,696.01,1513.66,695.69,1513.69,695.09z"/>
			</g>
		</g>
	</g>
</g>
<g>
	<g>
		<g>
			<g>
				<path class="st2" d="M1514.6,503.21c-0.55,0.12-0.2,0.37,0.13,0.88l0.29,0.41c0.08,0.15,0.14,0.3,0.21,0.46
					c0.16,0.32,0.16,0.65,0.09,0.93c-0.35,1.15-1.52,1.9-2.82,2.75c-1.36,0.91-3.03,1.42-4.65,1.8c-0.42,0.07-0.81,0.2-1.22,0.27
					c-0.42,0.08-0.76,0.19-1.26,0.31c-0.91,0.26-1.9,0.55-2.93,0.96c-0.43,0.15-2.76,0.45-6.69,0.48
					c-3.91,0.05-9.53-0.28-15.98-0.56c-12.92-0.51-25.52-0.3-25.62,2.68c-0.05,1.24,7.82,1.61,8.22,1.81
					c1.95,0.95,5.39,1.83,9.55,2.6c4.13,0.76,9.13,1.45,13.69,1.92c4.58,0.47,8.85,0.63,12.17,0.4c3.33-0.21,5.7-0.78,6.7-1.3
					c3.75-1.93,6.27-3.92,8.41-6.21c2.1-2.26,3.52-4.85,3.79-7.07c0.03-0.36-0.02-0.76-0.23-1.15c-0.09-0.19-0.18-0.38-0.29-0.56
					l-0.37-0.5c-0.44-0.63-0.9-0.97-0.39-1.15c0.03-0.01-0.15-0.05-0.37-0.09C1514.81,503.23,1514.59,503.19,1514.6,503.21z"/>
				<path class="st2" d="M1523,504.81c-0.66,0.69-0.47,1.48-0.34,2.48c0.04,0.26,0.08,0.52,0.13,0.78c0.02,0.26,0.03,0.53,0.03,0.81
					c0.03,0.56-0.09,1.1-0.3,1.61c-0.9,2-2.6,3.3-4.5,4.67c-1.97,1.42-4.21,2.29-6.44,2.96c-1.12,0.32-2.24,0.64-3.38,0.96
					c-1.18,0.36-2.42,0.72-3.7,1.2c-0.52,0.18-3.4,0.61-7.81,0.68c-4.4,0.11-10.38-0.23-16.83-0.51
					c-12.92-0.51-25.52-0.3-25.62,2.68c-0.05,1.24,7.82,1.61,8.22,1.81c3.87,1.88,13.83,3.55,23.34,4.52
					c4.73,0.47,9.33,0.61,13.05,0.34c3.72-0.26,6.52-0.92,7.71-1.49c4.43-2.09,7.99-4.47,10.96-7.31c2.96-2.82,5.26-6.15,6.37-9.67
					c0.17-0.58,0.24-1.19,0.16-1.82c-0.03-0.31-0.07-0.61-0.12-0.91c-0.07-0.29-0.14-0.58-0.21-0.87c-0.24-1.12-0.53-2,0.09-2.75
					c0.03-0.03-0.14-0.1-0.36-0.14C1523.21,504.79,1522.99,504.77,1523,504.81z"/>
				<path class="st2" d="M1531.4,506.42c-0.77,1.26-0.75,2.59-0.82,4.09c-0.01,0.38-0.02,0.76-0.03,1.15
					c-0.03,0.38-0.08,0.77-0.14,1.16c-0.09,0.79-0.34,1.55-0.69,2.28c-1.45,2.85-3.68,4.71-6.17,6.58c-2.58,1.94-5.4,3.16-8.22,4.13
					c-2.82,0.96-5.68,1.68-8.75,2.76c-0.61,0.2-4.04,0.76-8.94,0.88c-4.89,0.16-11.23-0.18-17.69-0.45
					c-12.92-0.51-25.52-0.3-25.62,2.68c-0.05,1.24,7.82,1.61,8.22,1.81c3.91,1.88,13.74,3.55,23.43,4.52
					c4.87,0.46,9.81,0.6,13.92,0.27c4.11-0.31,7.34-1.06,8.73-1.68c5.1-2.24,9.7-5.03,13.51-8.42c3.81-3.38,7.01-7.45,8.96-12.26
					c0.31-0.8,0.5-1.63,0.54-2.49c0.03-0.42,0.05-0.84,0.05-1.26c-0.02-0.41-0.03-0.83-0.05-1.24c-0.04-1.61-0.17-3.03,0.56-4.35
					c0.04-0.06-0.13-0.14-0.35-0.19C1531.62,506.34,1531.39,506.35,1531.4,506.42z"/>
				<path class="st2" d="M1539.79,508.02c-0.88,1.83-1.02,3.7-1.29,5.69c-0.06,0.5-0.13,1.01-0.19,1.52c-0.09,0.5-0.19,1-0.31,1.51
					c-0.22,1.03-0.59,2.01-1.08,2.96c-2.01,3.71-4.76,6.11-7.85,8.49c-6.42,4.91-13.43,6.3-20.42,8.66
					c-0.71,0.23-4.69,0.91-10.06,1.08c-5.38,0.21-12.09-0.13-18.54-0.4c-12.92-0.51-25.52-0.3-25.62,2.68
					c-0.05,1.24,7.82,1.61,8.22,1.81c1.95,0.95,5.39,1.83,9.55,2.6c4.19,0.76,8.94,1.46,13.98,1.92c5.02,0.46,10.29,0.58,14.8,0.21
					c4.5-0.36,8.16-1.2,9.74-1.87c5.78-2.4,11.41-5.58,16.06-9.52c4.66-3.94,8.75-8.76,11.54-14.86c0.45-1.01,0.76-2.06,0.92-3.15
					c0.09-0.54,0.17-1.07,0.22-1.6c0.04-0.54,0.07-1.07,0.11-1.6c0.16-2.1,0.19-4.06,1.03-5.95c0.04-0.08-0.12-0.19-0.34-0.24
					C1540.02,507.9,1539.79,507.92,1539.79,508.02z"/>
				<path class="st2" d="M1548.19,509.62c-0.99,2.4-1.29,4.81-1.77,7.3c-0.12,0.62-0.24,1.25-0.35,1.89
					c-0.14,0.62-0.31,1.24-0.48,1.86c-0.34,1.27-0.84,2.46-1.47,3.63c-2.56,4.56-5.84,7.51-9.52,10.41
					c-3.8,2.97-7.77,4.9-11.78,6.45c-2,0.75-4.09,1.48-6.08,2.09c-1.96,0.62-3.94,1.24-6.01,1.89c-0.8,0.25-5.33,1.07-11.19,1.29
					c-5.87,0.27-12.94-0.08-19.4-0.35c-12.92-0.51-25.52-0.3-25.62,2.68c-0.05,1.24,7.82,1.61,8.22,1.81
					c1.95,0.95,5.39,1.83,9.55,2.6c2.08,0.39,4.34,0.75,6.68,1.07c2.33,0.33,4.8,0.62,7.39,0.85c5.16,0.46,10.77,0.57,15.67,0.14
					c4.89-0.4,8.98-1.34,10.76-2.06c1.64-0.66,3.27-1.38,4.86-2.11c0.8-0.39,1.59-0.78,2.37-1.17c0.8-0.41,1.63-0.87,2.43-1.3
					c3.2-1.79,6.16-3.8,8.94-6.04c2.78-2.24,5.37-4.77,7.76-7.64c2.38-2.87,4.57-6.11,6.36-9.81c0.59-1.23,1.03-2.49,1.31-3.82
					c0.15-0.66,0.28-1.3,0.39-1.95c0.09-0.66,0.18-1.32,0.27-1.97c0.36-2.6,0.56-5.09,1.5-7.55c0.05-0.11-0.11-0.23-0.33-0.28
					C1548.43,509.46,1548.2,509.5,1548.19,509.62z"/>
			</g>
		</g>
	</g>
</g>
<g>
	<g>
		<g>
			<g>
				<path class="st2" d="M1501.75,588.57c-0.64-0.19-0.8,0.32-0.91,1s-0.21,1.46-0.57,1.84c-0.35,0.38-0.78,0.54-1.22,0.67
					s-0.9,0.19-1.4,0.27c-1.99,0.43-4.03-0.57-5.76,0.4c-0.36,0.2-4.34-0.34-7.7-1.14c-3.42-0.67-6.31-1.45-7.17,1.45
					c-0.35,1.18,1.78,2.16,1.89,2.34c0.2,0.52,0.52,1.08,0.95,1.59c0.44,0.5,0.98,1.02,1.61,1.5c1.27,0.91,2.89,1.74,4.57,2.22
					c3.36,1.06,6.85,0.88,7.67,0.13c0.77-0.68,1.5-1.29,2.17-1.94c0.69-0.61,1.31-1.26,1.92-1.89c0.61-0.62,1.17-1.31,1.72-1.97
					c0.52-0.73,1.06-1.39,1.5-2.21c0.31-0.51,0.34-1.45,0.39-2.27c0.05-0.81,0.16-1.44,0.77-1.3c0.03,0.01-0.06-0.15-0.17-0.34
					C1501.89,588.72,1501.76,588.54,1501.75,588.57z"/>
				<path class="st2" d="M1506.34,595.78c-0.74-0.12-1.01,0.46-1.23,1.2s-0.43,1.58-0.9,2.02c-0.46,0.44-1.01,0.65-1.56,0.83
					s-1.12,0.29-1.73,0.41c-2.47,0.63-4.93-0.24-7.16,0.84c-0.46,0.23-5.39-0.11-9.74-0.94c-4.39-0.67-8.27-1.72-9.14,1.18
					c-0.36,1.19,2.39,2.3,2.52,2.47c0.27,0.53,0.69,1.11,1.25,1.64c0.56,0.52,1.25,1.06,2.04,1.54c1.58,0.94,3.57,1.78,5.61,2.25
					c4.08,1.04,8.25,0.73,9.27-0.06c0.96-0.72,1.86-1.38,2.7-2.08c0.86-0.66,1.65-1.37,2.43-2.05s1.5-1.44,2.23-2.17
					c0.69-0.8,1.4-1.55,2.02-2.46c0.42-0.58,0.57-1.57,0.72-2.45c0.16-0.87,0.37-1.56,1.1-1.5c0.03,0.01-0.05-0.16-0.16-0.35
					C1506.48,595.93,1506.35,595.76,1506.34,595.78z"/>
				<path class="st2" d="M1510.92,603c-0.85-0.05-1.23,0.59-1.56,1.39c-0.33,0.8-0.65,1.71-1.24,2.21c-0.58,0.5-1.23,0.77-1.89,0.99
					c-0.66,0.23-1.34,0.39-2.06,0.56c-2.95,0.82-5.83,0.09-8.56,1.28c-0.56,0.25-6.45,0.13-11.77-0.73
					c-5.36-0.68-10.23-1.98-11.1,0.91c-0.36,1.19,2.99,2.44,3.15,2.61c0.35,0.55,0.87,1.14,1.56,1.69c0.69,0.53,1.52,1.09,2.47,1.59
					c1.9,0.97,4.26,1.82,6.65,2.28c2.39,0.51,4.81,0.65,6.77,0.57c1.96-0.11,3.47-0.4,4.09-0.84c1.14-0.76,2.22-1.47,3.24-2.22
					c1.03-0.71,2-1.48,2.94-2.22c0.95-0.74,1.84-1.57,2.73-2.37c0.86-0.88,1.74-1.7,2.53-2.7c0.54-0.64,0.79-1.69,1.05-2.63
					c0.27-0.94,0.59-1.69,1.42-1.69c0.04,0-0.04-0.16-0.16-0.35C1511.08,603.14,1510.94,602.97,1510.92,603z"/>
				<path class="st2" d="M1515.51,610.21c-0.96,0.02-1.44,0.72-1.88,1.59c-0.43,0.87-0.86,1.83-1.58,2.39
					c-0.7,0.56-1.46,0.88-2.23,1.16c-0.77,0.28-1.56,0.49-2.4,0.71c-3.42,1.02-6.73,0.42-9.95,1.72c-0.66,0.28-7.51,0.36-13.8-0.53
					c-3.16-0.39-6.22-0.86-8.58-1.01c-2.36-0.1-4.07,0.19-4.5,1.65c-0.37,1.2,3.6,2.58,3.79,2.75c0.42,0.56,1.05,1.17,1.86,1.74
					c0.81,0.55,1.79,1.13,2.9,1.64c2.21,1,4.94,1.86,7.69,2.31c2.75,0.5,5.52,0.6,7.77,0.48c2.24-0.16,3.98-0.49,4.69-0.95
					c1.32-0.8,2.58-1.55,3.77-2.36c1.2-0.76,2.34-1.58,3.45-2.39c1.12-0.8,2.18-1.7,3.24-2.57c1.03-0.95,2.08-1.86,3.05-2.95
					c0.66-0.7,1.01-1.81,1.38-2.81c0.38-1,0.8-1.82,1.74-1.89c0.04,0-0.03-0.17-0.15-0.36
					C1515.67,610.35,1515.53,610.18,1515.51,610.21z"/>
				<path class="st2" d="M1520.09,617.43c-1.07,0.08-1.66,0.85-2.2,1.78c-0.54,0.93-1.08,1.95-1.91,2.57
					c-0.81,0.62-1.68,0.99-2.56,1.32s-1.78,0.59-2.73,0.85c-3.9,1.21-7.64,0.74-11.35,2.16c-0.37,0.15-2.52,0.3-5.48,0.3
					c-2.96,0.03-6.71-0.22-10.36-0.63c-3.65-0.4-7.19-0.93-9.92-1.15c-2.72-0.17-4.69,0.06-5.12,1.51c-0.37,1.2,4.2,2.72,4.42,2.89
					c0.5,0.57,1.23,1.2,2.16,1.79c0.93,0.57,2.06,1.16,3.33,1.69c2.53,1.03,5.63,1.91,8.74,2.34c3.11,0.49,6.22,0.55,8.76,0.39
					c2.53-0.2,4.48-0.58,5.29-1.06c1.51-0.84,2.94-1.64,4.3-2.49c1.38-0.81,2.68-1.69,3.96-2.55c1.28-0.86,2.51-1.82,3.74-2.77
					c1.2-1.03,2.42-2.01,3.57-3.19c0.77-0.76,1.24-1.93,1.72-2.99s1.01-1.94,2.07-2.08c0.05,0-0.02-0.17-0.14-0.37
					C1520.27,617.56,1520.12,617.39,1520.09,617.43z"/>
			</g>
		</g>
	</g>
</g>
<g>
	<g>
		<g>
			<g>
				<path class="st2" d="M1600.39,732.93c2.08-3.79,3.32-7.78,4.43-11.86c1.05-4.1,1.8-8.35,3.21-12.62
					c0.71-2.09,1.32-4.14,1.95-6.14s1.28-3.96,1.94-5.9c1.39-3.88,2.54-7.8,3.82-11.98c0.63-2.14,1.31-4.24,1.91-6.33
					c0.59-2.1,1.16-4.17,1.74-6.23c0.59-2.06,1.17-4.1,1.75-6.13c0.56-2.04,1.02-4.1,1.53-6.15c0.97-4.11,2.03-8.22,2.7-12.48
					c0.37-2.12,0.72-4.27,1.05-6.45c0.16-1.09,0.31-2.19,0.47-3.3c0.13-1.11,0.22-2.23,0.32-3.37c0.08-0.9,0.48-3.75,1.1-8.04
					c0.15-1.07,0.34-2.24,0.49-3.49c0.14-1.25,0.28-2.59,0.44-4c0.31-2.82,0.65-5.95,1.02-9.31c1.18-13.48,1.89-30.91,1-48.13
					c-0.12-2.15-0.25-4.3-0.37-6.44c-0.07-1.07-0.13-2.14-0.2-3.2c-0.11-1.06-0.21-2.11-0.32-3.17c-0.44-4.2-0.82-8.34-1.35-12.31
					c-0.59-3.97-1.18-7.8-1.77-11.42c-0.26-1.82-0.67-3.56-1.01-5.25c-0.36-1.69-0.71-3.32-1.05-4.88c-0.35-1.56-0.7-3.05-1.02-4.48
					c-0.08-0.35-0.17-0.7-0.25-1.05c-0.09-0.37-0.19-0.73-0.28-1.09c-0.11-0.38-0.21-0.77-0.32-1.15c-0.44-1.44-0.94-2.77-1.47-4.01
					c-1.08-2.48-2.34-4.72-3.87-6.89c-1.52-2.14-3.49-4.37-5.97-6.39c-0.67-0.54-1.35-1.04-2.02-1.5c-0.71-0.48-1.6-1.01-2.39-1.43
					c-0.4-0.22-0.8-0.42-1.2-0.62c-0.45-0.21-0.95-0.42-1.42-0.61c-0.95-0.38-1.89-0.7-2.8-0.96c-1.04-0.27-2.09-0.48-3.09-0.63
					s-1.94-0.24-2.95-0.24c-1.96,0-3.82,0.14-5.29,0.5c-1.51,0.34-2.83,0.77-3.92,1.21c-0.94,0.43-1.71,0.85-2.32,1.22
					c-1.22,0.76-1.8,1.31-1.8,1.52c-0.01,0.21,1.39-0.53,4.03-1.43c0.17-0.05,0.34-0.11,0.51-0.17c0.2-0.05,0.41-0.11,0.62-0.17
					c0.43-0.11,0.88-0.22,1.35-0.32c0.95-0.2,1.98-0.38,3.1-0.47c1.15-0.08,2.4-0.09,3.69,0c0.32,0.03,0.65,0.06,0.98,0.08
					c0.31,0.05,0.62,0.1,0.93,0.15c0.63,0.11,1.27,0.24,1.93,0.4c0.63,0.16,1.36,0.35,1.91,0.56c0.57,0.21,1.14,0.44,1.72,0.69
					c0.57,0.25,1.17,0.53,1.72,0.82c0.47,0.27,0.95,0.55,1.43,0.85c0.48,0.3,0.95,0.62,1.42,0.95c0.42,0.31,0.78,0.6,1.17,0.93
					c0.38,0.32,0.76,0.65,1.14,0.98c0.38,0.34,0.64,0.62,0.96,0.95c2.49,2.58,4.03,5.04,5.27,7.41c1.22,2.38,2.09,4.67,2.76,7.1
					c0.17,0.58,0.31,1.24,0.45,1.85l0.1,0.46l0.05,0.23l0.02,0.11l0.07,0.44c0.09,0.58,0.17,1.14,0.25,1.66
					c0.32,2.07,0.54,3.55,0.54,3.82c0.01,1.3,0.07,2.84,0.17,4.59c0.1,1.75,0.27,3.7,0.35,5.85c0.1,2.14,0.24,4.46,0.4,6.92
					c0.15,2.46,0.39,5.06,0.46,7.79c0.2,5.46,0.6,11.34,0.61,17.46c0.03,3.05,0.17,6.15,0.14,9.27s-0.07,6.26-0.1,9.39
					c-0.26,25.02-3.53,48.97-3.94,56.11c-0.09,3.3-0.45,6.52-0.7,9.72c-0.14,1.6-0.28,3.19-0.41,4.77
					c-0.07,0.79-0.14,1.58-0.21,2.37c-0.1,0.78-0.2,1.56-0.3,2.34c-0.4,3.12-0.8,6.22-1.2,9.3l-0.3,2.31l-0.39,2.29l-0.78,4.59
					c-1.99,12.26-4.8,24.39-8.22,37.33c-1.24,4.23-1.81,8.48-2.71,12.59c-0.95,4.09-2.08,8.12-4.1,11.92
					c-0.09,0.17,0.02,0.38,0.21,0.49C1600.07,733.17,1600.33,733.13,1600.39,732.93z"/>
				<path class="st2" d="M1592.54,729.54c2.04-3.7,3.25-7.6,4.31-11.58c1.02-4.01,1.73-8.16,3.1-12.33c0.7-2.04,1.29-4.05,1.9-6
					c0.62-1.95,1.25-3.86,1.9-5.76c1.36-3.78,2.49-7.62,3.73-11.69c0.61-2.09,1.29-4.14,1.87-6.18c0.57-2.05,1.14-4.07,1.7-6.08
					c0.57-2.01,1.15-4,1.71-5.99c0.54-1.99,1-4,1.5-6.01c0.95-4.01,1.99-8.03,2.64-12.19c0.36-2.08,0.7-4.17,1.02-6.3
					c0.15-1.07,0.31-2.14,0.46-3.22c0.13-1.08,0.21-2.18,0.31-3.29c0.08-0.88,0.47-3.66,1.08-7.86c0.15-1.05,0.34-2.18,0.48-3.41
					c0.13-1.22,0.28-2.53,0.43-3.91c0.3-2.76,0.64-5.81,1-9.1c1.16-13.17,1.87-30.2,1-47.03c-0.12-2.1-0.24-4.2-0.36-6.29
					c-0.06-1.04-0.13-2.09-0.19-3.12c-0.1-1.03-0.21-2.07-0.31-3.09c-0.43-4.1-0.8-8.14-1.31-12.02c-0.58-3.87-1.16-7.61-1.73-11.15
					c-0.26-1.77-0.66-3.47-0.99-5.12c-0.36-1.65-0.7-3.24-1.03-4.76c-0.35-1.52-0.68-2.98-1-4.37c-0.08-0.35-0.16-0.69-0.24-1.02
					c-0.13-0.51-0.31-1.18-0.48-1.74c-0.35-1.12-0.75-2.16-1.17-3.13c-0.86-1.94-1.87-3.69-3.06-5.34
					c-1.18-1.63-2.66-3.24-4.44-4.66c-0.48-0.37-0.96-0.72-1.43-1.04c-0.5-0.33-1.11-0.67-1.65-0.96c-0.28-0.14-0.55-0.28-0.83-0.42
					c-0.31-0.14-0.64-0.27-0.96-0.39c-0.64-0.24-1.27-0.45-1.88-0.62c-0.69-0.17-1.38-0.29-2.04-0.37
					c-0.66-0.09-1.28-0.15-1.94-0.13c-1.28,0.03-2.49,0.13-3.44,0.4c-0.98,0.25-1.83,0.55-2.53,0.86c-0.61,0.31-1.1,0.61-1.49,0.89
					c-0.77,0.55-1.12,0.95-1.09,1.14c0.02,0.18,0.96-0.24,2.66-0.78c0.88-0.26,2.15-0.53,3.53-0.65c0.72-0.03,1.5-0.02,2.3,0.04
					c0.83,0.04,1.57,0.24,2.4,0.43c0.85,0.2,1.56,0.49,2.28,0.82c0.36,0.16,0.74,0.34,1.09,0.53c0.31,0.18,0.61,0.37,0.92,0.57
					s0.62,0.41,0.92,0.63c0.28,0.21,0.51,0.42,0.77,0.63c0.25,0.22,0.5,0.44,0.76,0.67c0.25,0.23,0.43,0.44,0.65,0.66
					c1.7,1.8,2.83,3.62,3.75,5.42c0.91,1.8,1.56,3.59,2.05,5.42c0.23,0.86,0.48,2.03,0.52,2.44c0.09,0.57,0.17,1.11,0.24,1.62
					c0.3,2.02,0.52,3.47,0.52,3.73c0,1.27,0.05,2.78,0.15,4.49c0.09,1.71,0.26,3.61,0.32,5.71c0.1,2.09,0.22,4.36,0.37,6.76
					c0.14,2.4,0.37,4.94,0.43,7.61c0.18,5.33,0.57,11.08,0.57,17.05c0.03,2.98,0.16,6.01,0.13,9.06c-0.04,3.05-0.08,6.11-0.11,9.17
					c-0.28,24.44-3.48,47.82-3.87,54.79c-0.08,3.23-0.43,6.37-0.67,9.5c-0.13,1.56-0.26,3.11-0.4,4.66
					c-0.07,0.77-0.13,1.54-0.2,2.31c-0.1,0.76-0.19,1.53-0.29,2.29c-0.39,3.05-0.77,6.07-1.16,9.08l-0.29,2.26l-0.37,2.24
					l-0.75,4.48c-1.92,11.97-4.66,23.82-7.97,36.46c-1.21,4.13-1.74,8.29-2.6,12.31c-0.92,4-2,7.93-3.99,11.65
					c-0.09,0.16,0.02,0.37,0.22,0.48C1592.23,729.77,1592.48,729.74,1592.54,729.54z"/>
				<path class="st2" d="M1584.69,726.16c2-3.6,3.17-7.41,4.2-11.3c0.98-3.92,1.66-7.97,3-12.04c0.68-1.99,1.26-3.95,1.85-5.86
					c0.6-1.91,1.22-3.77,1.86-5.62c1.33-3.69,2.43-7.44,3.65-11.41c0.6-2.04,1.26-4.04,1.84-6.03c0.56-2,1.12-3.97,1.67-5.93
					c0.56-1.96,1.12-3.91,1.68-5.85c0.53-1.95,0.98-3.91,1.47-5.86c0.93-3.92,1.95-7.84,2.59-11.9c0.35-2.03,0.69-4.08,1-6.16
					c0.15-1.04,0.3-2.09,0.45-3.14c0.13-1.06,0.21-2.13,0.3-3.21c0.07-0.86,0.46-3.58,1.06-7.67c0.14-1.03,0.33-2.13,0.48-3.33
					c0.13-1.19,0.27-2.47,0.42-3.81c0.3-2.69,0.63-5.68,0.98-8.89c1.14-12.86,1.84-29.49,1.01-45.93c-0.12-2.05-0.23-4.1-0.35-6.14
					c-0.06-1.02-0.12-2.04-0.18-3.05c-0.1-1.01-0.2-2.02-0.3-3.02c-0.42-4.01-0.78-7.95-1.28-11.74c-0.56-3.78-1.13-7.43-1.69-10.88
					c-0.25-1.73-0.64-3.39-0.97-5c-0.35-1.61-0.68-3.16-1.01-4.65c-0.34-1.48-0.67-2.91-0.97-4.26c-0.08-0.34-0.16-0.67-0.24-1
					c-0.12-0.42-0.24-0.83-0.35-1.24c-0.26-0.8-0.55-1.55-0.88-2.26c-1.3-2.8-2.95-5.06-5.14-6.71c-1.07-0.82-2.41-1.43-3.68-1.72
					c-0.69-0.1-1.31-0.2-1.92-0.14c-0.6,0.07-1.15,0.11-1.59,0.3c-0.45,0.16-0.83,0.34-1.14,0.5c-0.28,0.2-0.49,0.38-0.66,0.55
					c-0.33,0.34-0.44,0.59-0.38,0.77c0.05,0.15,0.53,0.06,1.29-0.13c0.39-0.08,0.92-0.13,1.47-0.16c0.58,0.03,1.23,0.07,1.87,0.3
					c1.29,0.41,2.44,1.28,3.34,2.29c0.91,1.02,1.64,2.2,2.23,3.42s1.04,2.5,1.35,3.74c0.32,1.28,0.42,2.38,0.59,3.37
					c0.29,1.97,0.5,3.38,0.5,3.64c0,1.24,0.04,2.71,0.13,4.38c0.08,1.67,0.24,3.53,0.3,5.57c0.09,2.04,0.2,4.25,0.35,6.6
					c0.14,2.35,0.36,4.82,0.4,7.42c0.16,5.2,0.54,10.81,0.53,16.64c0.02,2.91,0.15,5.86,0.11,8.84c-0.04,2.97-0.08,5.96-0.12,8.94
					c-0.3,23.85-3.44,46.67-3.81,53.48c-0.07,3.15-0.41,6.22-0.64,9.27c-0.13,1.53-0.25,3.04-0.38,4.55
					c-0.06,0.75-0.13,1.51-0.19,2.26c-0.09,0.75-0.18,1.49-0.28,2.23c-0.37,2.98-0.74,5.93-1.11,8.87l-0.28,2.21l-0.36,2.19
					l-0.73,4.37c-1.85,11.69-4.51,23.26-7.72,35.6c-1.17,4.03-1.67,8.09-2.5,12.03c-0.88,3.91-1.93,7.75-3.87,11.37
					c-0.09,0.16,0.03,0.36,0.22,0.47C1584.38,726.38,1584.63,726.35,1584.69,726.16z"/>
				<path class="st2" d="M1576.84,722.77c1.96-3.51,3.09-7.23,4.09-11.02c0.94-3.82,1.59-7.79,2.89-11.75
					c0.66-1.94,1.22-3.85,1.8-5.71c0.59-1.86,1.19-3.68,1.81-5.49c1.3-3.6,2.38-7.25,3.57-11.13c0.59-1.99,1.23-3.94,1.8-5.88
					c0.55-1.95,1.09-3.88,1.63-5.79c0.55-1.91,1.1-3.81,1.65-5.7c0.52-1.9,0.96-3.81,1.44-5.72c0.91-3.82,1.92-7.65,2.54-11.61
					c0.34-1.98,0.67-3.98,0.98-6.01c0.15-1.02,0.29-2.04,0.44-3.07c0.12-1.03,0.2-2.08,0.29-3.14c0.07-0.84,0.45-3.49,1.04-7.49
					c0.14-1,0.33-2.08,0.47-3.25c0.13-1.17,0.27-2.41,0.41-3.72c0.29-2.63,0.62-5.54,0.97-8.67c1.12-12.55,1.82-28.79,1.01-44.82
					c-0.11-2-0.23-4-0.34-5.99c-0.06-1-0.12-1.99-0.18-2.98c-0.1-0.99-0.2-1.97-0.29-2.94c-0.41-3.91-0.75-7.76-1.24-11.45
					c-0.57-3.69-1.13-7.24-1.65-10.61c-0.24-1.69-0.63-3.3-0.95-4.87c-0.34-1.57-0.67-3.08-0.98-4.53
					c-0.33-1.45-0.65-2.84-0.95-4.16c-0.08-0.33-0.16-0.65-0.23-0.97c-0.08-0.25-0.15-0.49-0.23-0.74
					c-0.17-0.48-0.36-0.94-0.58-1.38c-0.84-1.75-2.01-3.05-2.79-3.42c-0.09-0.04-0.18-0.07-0.26-0.11c-0.08-0.02-0.13,0-0.19-0.01
					c-0.06-0.02-0.1-0.01-0.12,0.04l-0.03,0.04l0.07-0.25c0.04-0.1,0.07-0.19,0.09-0.3s0.02-0.26,0.02-0.21c0,0,0.01-0.02,0.01-0.04
					v-0.03l0.01,0.11c0.02,0.14,0.06,0.23,0.09,0.29c0.06,0.22,0.13,0.39,0.19,0.52c0.13,0.26,0.23,0.37,0.24,0.39
					c0.02,0.01-0.2-0.19-0.4-0.79l-0.03-0.12l-0.02-0.04c-0.01-0.03-0.03-0.06-0.04-0.1c-0.02-0.06-0.04-0.2-0.04-0.25
					c0,0.04,0,0.06-0.01,0.07l0,0l-0.01,0.12c-0.01,0.08-0.02,0.15-0.04,0.22c-0.02,0.09-0.04,0.08-0.08,0.25
					c-0.04,0.14-0.09,0.29-0.14,0.42c-0.06,0.14-0.12,0.25-0.2,0.39c-0.09,0.2-0.19,0.39-0.3,0.58s-0.23,0.36-0.37,0.52
					c-0.07,0.09-0.15,0.22-0.22,0.33c-0.04,0.07-0.02,0.03-0.03,0.05s0,0.04,0.04,0.13c0.12,0.24,0.44,0.78,0.71,1.43
					c0.28,0.65,0.52,1.42,0.65,2.07c0.08,0.4,0.27,1.76,0.41,2.68c0.28,1.93,0.49,3.3,0.48,3.55c-0.01,1.21,0.03,2.65,0.11,4.27
					c0.08,1.63,0.23,3.44,0.27,5.44c0.08,1.99,0.19,4.15,0.32,6.43c0.13,2.29,0.34,4.7,0.38,7.24c0.15,5.07,0.51,10.54,0.49,16.23
					c0.02,2.84,0.14,5.72,0.1,8.62s-0.09,5.82-0.13,8.72c-0.32,23.26-3.39,45.52-3.74,52.16c-0.06,3.07-0.39,6.07-0.6,9.05
					c-0.12,1.49-0.24,2.97-0.36,4.44c-0.06,0.74-0.12,1.47-0.18,2.2c-0.09,0.73-0.18,1.45-0.27,2.18c-0.36,2.91-0.72,5.79-1.07,8.65
					l-0.27,2.15l-0.35,2.13l-0.7,4.27c-1.79,11.41-4.36,22.69-7.47,34.74c-1.14,3.93-1.6,7.9-2.39,11.74
					c-0.84,3.82-1.86,7.57-3.76,11.09c-0.09,0.15,0.03,0.36,0.23,0.46C1576.54,722.99,1576.79,722.96,1576.84,722.77z"/>
				<path class="st2" d="M1568.99,719.38c1.92-3.41,3.01-7.04,3.97-10.75c0.91-3.73,1.52-7.6,2.78-11.47
					c0.64-1.9,1.19-3.75,1.75-5.57c0.57-1.81,1.16-3.58,1.77-5.35c1.27-3.51,2.32-7.07,3.49-10.85c0.57-1.94,1.21-3.84,1.76-5.73
					c0.54-1.9,1.07-3.78,1.6-5.64c0.54-1.86,1.08-3.72,1.62-5.56c0.51-1.85,0.94-3.72,1.41-5.58c0.89-3.73,1.88-7.46,2.49-11.33
					c0.34-1.93,0.66-3.88,0.96-5.86c0.14-0.99,0.29-1.99,0.43-2.99c0.12-1.01,0.19-2.03,0.28-3.06c0.07-0.82,0.44-3.4,1.02-7.3
					c0.14-0.98,0.32-2.03,0.46-3.17c0.13-1.14,0.26-2.35,0.41-3.63c0.29-2.57,0.61-5.4,0.95-8.46c1.1-12.25,1.8-28.08,1.02-43.72
					c-0.11-1.95-0.22-3.9-0.33-5.84c-0.06-0.97-0.11-1.94-0.17-2.9c-0.1-0.96-0.19-1.92-0.29-2.87c-0.4-3.81-0.73-7.56-1.21-11.17
					c-0.56-3.59-1.1-7.06-1.61-10.35c-0.24-1.65-0.61-3.22-0.93-4.75c-0.33-1.53-0.65-3-0.96-4.42c-0.32-1.41-0.64-2.76-0.93-4.05
					c-0.08-0.32-0.15-0.64-0.23-0.95c-0.05-0.15-0.08-0.15-0.1-0.24c-0.08-0.16-0.17-0.33-0.28-0.5c-0.21-0.34-0.46-0.6-0.6-0.67
					c-0.03,0-0.06,0-0.08-0.01c0-0.01,0.19-0.14,0.28-0.21l0.33-0.25c0.22-0.17,0.43-0.34,0.63-0.52c0.41-0.39,0.8-0.7,1.16-1.05
					c0.36-0.32,0.7-0.79,0.98-1.05c0.29-0.31,0.55-0.64,0.78-0.99c0.22-0.32,0.4-0.53,0.56-0.82c0.08-0.14,0.15-0.28,0.21-0.43
					c0.06-0.11,0.11-0.18,0.16-0.28c0.09-0.19,0.16-0.39,0.21-0.61c0.04-0.1,0.07-0.19,0.09-0.3s0.02-0.26,0.02-0.21
					c0,0,0.01-0.02,0.01-0.04v-0.03l0.01,0.11c0.02,0.14,0.06,0.23,0.09,0.29c0.06,0.22,0.13,0.39,0.19,0.52
					c0.13,0.26,0.23,0.37,0.24,0.39c0.02,0.01-0.2-0.19-0.4-0.79l-0.03-0.12l-0.02-0.04c-0.01-0.03-0.03-0.06-0.04-0.1
					c-0.02-0.06-0.04-0.2-0.04-0.25c0,0.04,0,0.06-0.01,0.07l0,0l-0.01,0.12c-0.01,0.08-0.02,0.15-0.04,0.22
					c-0.02,0.09-0.04,0.08-0.08,0.25c-0.04,0.14-0.09,0.29-0.14,0.42c-0.06,0.14-0.12,0.25-0.2,0.39c-0.09,0.2-0.19,0.39-0.3,0.58
					s-0.23,0.36-0.37,0.52c-0.14,0.21-0.3,0.45-0.47,0.66c-0.17,0.22-0.35,0.42-0.54,0.62c-0.19,0.19-0.41,0.47-0.63,0.69
					c-0.87,0.86-1.95,1.8-3.01,2.56c-0.26,0.2-0.53,0.38-0.8,0.56c-0.28,0.18-0.55,0.34-0.76,0.49c-0.23,0.15-0.47,0.3-0.7,0.44
					c-0.12,0.07-0.04,0.01-0.07,0.04c-0.03,0.07,0,0.33-0.05,0.39v0.02h-0.01c0.02-0.01-0.05,0.01,0.06-0.02
					c0.29-0.08,0.59-0.16,0.89-0.23l0.45-0.09l0.11-0.02l0.06-0.01l0.03-0.01h0.01c0.37-0.08-3.12,0.68-1.65,0.36l0.01,0.1l0.06,0.4
					c0.08,0.53,0.15,1.03,0.22,1.5c0.27,1.88,0.47,3.22,0.47,3.46c-0.02,1.18,0.01,2.58,0.09,4.16c0.07,1.59,0.21,3.35,0.25,5.3
					c0.07,1.94,0.17,4.04,0.3,6.27c0.12,2.23,0.32,4.58,0.35,7.06c0.13,4.94,0.48,10.27,0.45,15.82c0.01,2.77,0.13,5.57,0.09,8.4
					c-0.05,2.83-0.09,5.67-0.14,8.5c-0.34,22.67-3.35,44.37-3.67,50.84c-0.05,3-0.37,5.92-0.57,8.82c-0.11,1.45-0.23,2.89-0.34,4.33
					c-0.06,0.72-0.11,1.43-0.17,2.15l-0.26,2.13c-0.35,2.83-0.69,5.64-1.03,8.44l-0.26,2.1l-0.34,2.08l-0.68,4.16
					c-1.72,11.13-4.21,22.13-7.22,33.87c-1.1,3.83-1.53,7.71-2.29,11.46c-0.81,3.72-1.78,7.38-3.64,10.81
					c-0.09,0.15,0.03,0.35,0.23,0.45C1568.69,719.59,1568.94,719.57,1568.99,719.38z"/>
			</g>
		</g>
	</g>
</g>
<g>
	<g>
		<g>
			<g>
				<path class="st2" d="M1692.41,522.72c-1.16,1.17-1.69,2.68-2.26,4.41c-0.56,1.72-1.24,3.63-2.51,5.34
					c-1.25,1.68-2.68,3.16-4.25,4.6c-1.56,1.44-3.24,2.84-5.1,4.4c-3.76,3.17-7.97,6.18-11.99,9.24c-4.03,3.06-8,6.22-11.89,10.02
					c-3.11,3.03-66.62,51.3-63.01,56.06c0.74,1,10.42-6.9,11.02-7.16c11.78-5.2,51.66-36.14,57.51-42.72
					c5.4-6.04,10.53-11.59,15.64-17.14c5.07-5.51,9.78-10.76,13.32-16.31c1.17-1.81,1.73-3.86,2.19-5.68
					c0.47-1.84,0.91-3.45,2.04-4.68c0.06-0.05-0.08-0.19-0.27-0.3C1692.66,522.7,1692.43,522.64,1692.41,522.72z"/>
				<path class="st2" d="M1699.98,526.7c-1.35,1.53-2.08,3.35-2.84,5.35c-0.75,1.99-1.61,4.13-3.05,6.04
					c-1.42,1.87-2.99,3.5-4.67,5.05c-1.67,1.56-3.44,3.04-5.37,4.65c-3.91,3.31-8.08,6.28-12.1,9.34c-4.03,3.06-8,6.22-11.89,10.03
					c-3.11,3.03-66.63,51.3-63.02,56.06c0.74,1,10.42-6.9,11.02-7.16c11.78-5.2,51.66-36.15,57.51-42.72
					c5.4-6.04,10.52-11.59,15.64-17.15c5.09-5.54,10.07-10.98,14.12-17.12c1.34-2.01,2.08-4.27,2.73-6.37
					c0.66-2.11,1.29-4.02,2.62-5.62c0.06-0.07-0.06-0.22-0.26-0.33C1700.24,526.65,1700.01,526.6,1699.98,526.7z"/>
				<path class="st2" d="M1707.55,530.67c-1.55,1.9-2.46,4.02-3.41,6.3c-0.94,2.27-1.98,4.63-3.6,6.73
					c-3.21,4.14-6.77,7.05-10.72,10.41c-8.16,6.84-16.35,11.85-24.1,19.47c-3.11,3.03-66.63,51.3-63.02,56.06
					c0.74,1,10.42-6.9,11.02-7.16c11.78-5.2,51.66-36.14,57.51-42.72c5.4-6.04,10.52-11.59,15.65-17.15
					c5.11-5.56,10.35-11.21,14.92-17.92c1.51-2.21,2.43-4.69,3.26-7.06c0.85-2.38,1.67-4.6,3.19-6.56c0.07-0.08-0.05-0.24-0.24-0.36
					C1707.82,530.6,1707.59,530.56,1707.55,530.67z"/>
				<path class="st2" d="M1715.11,534.65c-1.74,2.26-2.85,4.69-3.99,7.24c-1.13,2.54-2.35,5.12-4.14,7.43
					c-3.55,4.52-7.32,7.63-11.41,11.11c-4.2,3.57-8.29,6.47-12.32,9.54c-4.03,3.06-8,6.22-11.89,10.03
					c-3.11,3.03-66.63,51.3-63.02,56.06c0.74,1,10.42-6.9,11.02-7.16c11.78-5.2,51.66-36.14,57.51-42.72
					c5.4-6.04,10.52-11.59,15.65-17.15c5.13-5.59,10.64-11.43,15.73-18.73c1.68-2.41,2.78-5.11,3.8-7.75
					c1.04-2.65,2.06-5.17,3.77-7.5c0.08-0.1-0.03-0.27-0.23-0.39C1715.4,534.55,1715.16,534.52,1715.11,534.65z"/>
				<path class="st2" d="M1722.68,538.63c-1.93,2.63-3.23,5.36-4.57,8.18c-1.33,2.81-2.72,5.62-4.69,8.12
					c-1.93,2.46-3.91,4.51-5.92,6.39c-2.01,1.89-4.06,3.63-6.17,5.42c-4.35,3.71-8.4,6.56-12.44,9.64c-4.03,3.06-8,6.22-11.89,10.02
					c-3.11,3.03-66.63,51.3-63.02,56.06c0.74,1,10.42-6.9,11.02-7.16c11.78-5.2,51.66-36.15,57.51-42.72
					c5.4-6.04,10.52-11.59,15.65-17.15c5.16-5.62,10.92-11.65,16.53-19.54c1.85-2.61,3.12-5.53,4.34-8.44
					c1.22-2.92,2.44-5.74,4.34-8.44c0.09-0.12-0.02-0.3-0.21-0.42C1722.98,538.5,1722.74,538.48,1722.68,538.63z"/>
			</g>
		</g>
	</g>
</g>
<g>
	<g>
		<g>
			<g>
				<path class="st2" d="M1722.84,707.6c-0.49-4.33-4.06-7.26-5.91-11.3c-0.89-2-1.62-3.9-2.28-5.83c-0.66-1.92-1.26-3.86-1.99-5.9
					c-2.96-8.31-4.6-16.1-8.91-24.01c-0.84-1.57-6.91-17.91-14.69-33.07c-7.63-15.23-16.84-29.14-19.4-27.66
					c-1.08,0.61,4.06,9.52,4.12,10.08c1.05,5.3,6.14,17.19,10.97,28.67c4.89,11.45,9.54,22.51,11.51,25.51
					c7.22,11.07,12.79,21.14,19.21,32.83c2.09,3.86,6.01,6.63,6.61,10.92c0.01,0.1,0.21,0.11,0.42,0.04
					C1722.71,707.83,1722.89,707.69,1722.84,707.6z"/>
				<path class="st2" d="M1714.76,710.38c-0.47-4.26-4.01-7.12-5.84-11.09c-0.87-1.97-1.6-3.83-2.25-5.73
					c-0.65-1.89-1.23-3.8-1.95-5.79c-2.9-8.17-4.49-15.84-8.74-23.61c-0.82-1.55-6.77-17.61-14.4-32.52
					c-7.49-14.97-16.54-28.64-19.1-27.16c-1.08,0.61,3.96,9.37,4.02,9.92c1,5.23,5.98,16.92,10.7,28.21
					c4.79,11.26,9.34,22.12,11.29,25.07c7.13,10.86,12.62,20.74,18.95,32.22c2.06,3.79,5.96,6.5,6.54,10.72
					c0.01,0.09,0.21,0.1,0.42,0.04C1714.62,710.6,1714.81,710.47,1714.76,710.38z"/>
				<path class="st2" d="M1706.67,713.16c-0.44-4.19-3.97-6.99-5.76-10.88c-0.86-1.93-1.57-3.77-2.21-5.62
					c-0.63-1.86-1.21-3.73-1.91-5.69c-2.84-8.03-4.38-15.57-8.56-23.2c-0.81-1.52-6.63-17.31-14.12-31.96
					c-7.35-14.72-16.24-28.14-18.8-26.66c-1.08,0.61,3.87,9.22,3.92,9.77c0.96,5.15,5.82,16.65,10.44,27.75
					c4.69,11.07,9.15,21.74,11.07,24.63c7.03,10.65,12.44,20.35,18.7,31.61c2.04,3.72,5.91,6.36,6.46,10.51
					c0.01,0.09,0.21,0.1,0.42,0.04C1706.54,713.38,1706.72,713.25,1706.67,713.16z"/>
				<path class="st2" d="M1698.59,715.94c-0.42-4.12-3.92-6.85-5.69-10.68c-0.85-1.89-1.55-3.7-2.17-5.52
					c-0.62-1.83-1.18-3.67-1.87-5.59c-2.79-7.89-4.27-15.3-8.38-22.79c-0.8-1.49-6.49-17.01-13.84-31.4
					c-7.2-14.46-15.95-27.64-18.5-26.16c-1.07,0.61,3.77,9.07,3.82,9.61c0.91,5.08,5.65,16.39,10.17,27.29
					c4.58,10.87,8.96,21.36,10.85,24.19c6.93,10.44,12.27,19.96,18.44,31c2.01,3.65,5.86,6.22,6.39,10.3
					c0.01,0.09,0.2,0.1,0.42,0.03C1698.45,716.16,1698.64,716.03,1698.59,715.94z"/>
				<path class="st2" d="M1690.5,718.72c-0.4-4.05-3.87-6.72-5.61-10.47c-0.83-1.86-1.52-3.63-2.13-5.42s-1.16-3.6-1.83-5.49
					c-2.73-7.74-4.16-15.04-8.21-22.39c-0.79-1.46-6.35-16.71-13.55-30.85c-7.06-14.2-15.65-27.15-18.2-25.65
					c-1.08,0.61,3.68,8.92,3.72,9.45c0.86,5,5.49,16.12,9.91,26.83c4.48,10.68,8.76,20.97,10.63,23.75
					c6.84,10.23,12.1,19.56,18.19,30.39c1.98,3.58,5.82,6.09,6.32,10.1c0.01,0.09,0.2,0.09,0.42,0.03
					C1690.37,718.93,1690.55,718.81,1690.5,718.72z"/>
			</g>
		</g>
	</g>
</g>
</svg>
